<?xml version="1.0" encoding="iso-8859-1"?>
<!-- Uploaded to: SVG Repo, www.svgrepo.com, Generator: SVG Repo Mixer Tools -->
<svg height="800px" width="800px" version="1.1" id="Layer_1" xmlns="http://www.w3.org/2000/svg" xmlns:xlink="http://www.w3.org/1999/xlink" 
	 viewBox="0 0 368 368" xml:space="preserve">
<circle style="fill: rgba(128, 212, 64, 0)" cx="184" cy="184" r="176"/>
<path style="fill: #6ea62a" d="M 184 368 C 82.4 368 0 285.6 0 184 S 82.4 0 184 0 s 184 82.4 184 184 S 285.6 368 184 368 z M 184 16 C 91.2 16 16 91.2 16 184 s 75.2 168 168 168 s 168 -75.2 168 -168 S 276.8 16 184 16 z"/>
<path style="fill: #67cb1b" d="M 238.4 25.2 c 44.4 30 73.6 81.2 73.6 138.8 c 0 92.8 -75.2 168 -168 168 c -19.2 0 -37.2 -3.2 -54.4 -9.2 c 26.8 18.4 59.6 29.2 94.4 29.2 c 92.8 0 168 -75.2 168 -168 C 352 110.4 304.4 47.6 238.4 25.2 z"/>
</svg>