<?xml version="1.0" standalone="no"?>
<!DOCTYPE svg PUBLIC "-//W3C//DTD SVG 20010904//EN"
 "http://www.w3.org/TR/2001/REC-SVG-20010904/DTD/svg10.dtd">
<svg version="1.0" xmlns="http://www.w3.org/2000/svg"
 width="752.000000pt" height="752.000000pt" viewBox="0 0 752.000000 752.000000"
 preserveAspectRatio="xMidYMid meet">
<metadata>
Created by potrace 1.16, written by Peter Selinger 2001-2019
</metadata>
<g transform="translate(0.000000,752.000000) scale(0.100000,-0.100000)"
fill="#000000" stroke="none">
<path d="M1685 5691 c-72 -18 -132 -68 -159 -133 -23 -53 -21 -150 4 -197 26
-53 92 -107 145 -120 26 -6 140 -11 278 -11 l235 0 282 -1130 c229 -915 288
-1138 310 -1174 19 -30 44 -51 81 -70 l53 -26 1245 0 c1184 0 1248 1 1286 19
55 25 101 81 120 144 8 28 112 455 231 947 240 995 236 970 178 1053 -59 86
-193 122 -289 78 -51 -23 -111 -89 -125 -138 -6 -21 -98 -398 -204 -838 l-193
-800 -1006 -3 -1006 -2 -10 37 c-6 21 -134 533 -285 1137 -304 1216 -285 1156
-381 1205 l-49 26 -356 2 c-195 1 -368 -2 -385 -6z"/>
<path d="M4020 5389 c-339 -52 -625 -312 -711 -647 -100 -391 79 -802 432
-991 125 -67 224 -93 374 -98 275 -11 474 65 661 251 95 96 153 182 194 289
50 129 63 213 57 367 -6 161 -21 221 -87 355 -143 290 -422 469 -750 480 -58
2 -134 -1 -170 -6z m510 -558 c36 -25 63 -84 55 -120 -4 -17 -94 -134 -228
-292 -189 -224 -228 -266 -261 -277 -65 -21 -102 6 -241 173 -66 79 -124 157
-129 174 -28 97 71 190 163 152 16 -7 61 -50 100 -97 40 -46 76 -84 80 -84 4
0 75 81 157 180 185 223 225 248 304 191z"/>
<path d="M3152 2611 c-95 -35 -166 -94 -219 -181 -55 -90 -68 -225 -32 -333
72 -221 318 -333 542 -247 80 30 167 113 209 198 31 63 33 73 33 177 0 103 -2
114 -31 175 -39 81 -109 152 -193 193 -56 28 -76 32 -160 34 -76 3 -107 -1
-149 -16z"/>
<path d="M4805 2616 c-155 -49 -260 -170 -287 -328 -29 -177 65 -353 230 -431
62 -30 75 -32 172 -32 97 0 110 2 172 32 197 93 284 313 206 520 -57 153 -209
254 -380 252 -40 0 -91 -6 -113 -13z"/>
</g>
</svg>
