<?xml version="1.0" encoding="iso-8859-1"?>
<!-- Uploaded to: SVG Repo, www.svgrepo.com, Generator: SVG Repo Mixer Tools -->
<svg height="800px" width="800px" version="1.1" id="Layer_1" xmlns="http://www.w3.org/2000/svg" xmlns:xlink="http://www.w3.org/1999/xlink" 
	 viewBox="0 0 512 512" xml:space="preserve">
<g>
	<path style="fill:#E21B1B;" d="M496,16v112H16V16H496 M512,0H0v144h512V0z"/>
	<path style="fill:#E21B1B;" d="M496,384v112H16V384H496 M512,368H0v144h512V368z"/>
</g>
<path style="fill:#999999;" d="M432,184h-40v16h40V184z M352,184h-40v16h40V184z M272,184h-40v16h40V184z M192,184h-40v16h40V184z
	 M112,184H72v16h40V184z M32,184H0v16h32V184z M16,232H0v40h16V232z M24,312H0v16h24V312z M104,312H64v16h40V312z M184,312h-40v16
	h40V312z M264,312h-40v16h40V312z M344,312h-40v16h40V312z M424,312h-40v16h40V312z M504,312h-40v16h40V312z M512,256h-16v40h16V256
	z M512,184h-40v16h24v16h16V184z"/>
</svg>