<?xml version="1.0" encoding="UTF-8"?>
<!-- Created with Inkscape (http://www.inkscape.org/) -->
<svg width="155.18mm" height="167.28mm" version="1.1" viewBox="0 0 155.18 167.28" xml:space="preserve" xmlns="http://www.w3.org/2000/svg"><g transform="translate(-9.4545 -52.738)"><g transform="translate(-18.046 -12.116)"><path d="m33.813 231.26-1.2195 0.87261-0.0054-0.4223-0.53935-6.35-0.39457-2.8929-0.39457-2.8929-2.6182-15.963-0.86353-6.5615-0.139-5.9965-0.139-5.9965 0.30685-3.9254 0.30685-3.9254 0.27652-2.249 0.27652-2.249 1.0417-6.0854 1.5817-6.8792 0.53936-1.8521 0.53936-1.8521 1.5146-4.7625 2.0871-5.5563 2.2267-5.0271 1.5549-3.0502 1.5549-3.0501 3.4639-5.7122 2.1923-3.2688 2.9308-3.9688 3.1744-3.9688 5.0574-5.512 2.6458-2.725 6.6146-5.8035 5.0271-3.7157 2.3812-1.6286 2.9104-1.817 2.1774-1.3803 6.0246-3.189 6.2521-2.6802 3.8021-1.3437 4.7625-1.5073 6.6146-1.6061 5.439-1.0822 9.9068-1.5582 6.8792-0.86321 11.642-1.5739 6.35-1.0595 7.6729-1.5923 5.8208-1.6109 7.4083-2.6692 4.2767-1.9706 3.9254-2.2727 2.9104-1.894 2.339-1.7672 0.25398 0.45383 0.25397 0.45383 0.13395 14.183 0.13394 14.183-0.31633 6.2177-0.31632 6.2177-0.38312 4.2333-0.38311 4.2333-0.54553 4.101-0.54552 4.101-0.75211 4.101-0.7521 4.101-2.2047 8.9958-3.346 10.054-2.4489 5.7196-1.6644 3.5408-3.9342 7.1161-2.0318 3.0566-2.0318 3.0565-4.1317 5.2917-6.3247 7.0125-6.3113 5.7443-4.9078 3.9787-6.1646 4.4912-8.1228 5.0201-4.3519 2.4207-6.496 3.1471-5.5562 2.4025-1.4552 0.57222-1.4552 0.57221-8.4614 2.8955-6.3552 1.7808-6.35 1.3774-2.1167 0.48565-7.4083 1.0736-5.2917 0.54427-11.642 1.0829-5.8208 0.81137-5.5562 1.2422-5.0271 1.6579-4.3888 2.1883-1.1502 0.81071-1.1502 0.8107z" fill="#6a993b"/><path d="m33.09 231.31h-0.17486l-0.1606-0.41852-0.1606-0.41851v-2.236l-1.0673-8.7009-0.80321-4.7625-0.28362-1.5875-0.28362-1.5875-1.0048-6.6146-0.38992-2.9104-0.38992-2.9104-0.29824-2.3509-0.29824-2.3509 0.02463-5.7189 0.02463-5.7189 0.27058-2.6458 0.27058-2.6458 0.27814-2.7781 0.27814-2.7781 0.5026-1.3229 0.09996-1.1906 0.09996-1.1906 0.27579-1.4552 0.27579-1.4552 1.1001-4.2333 1.1001-4.2333 0.46526-1.8521 0.53772-1.5148 0.53772-1.5147v-0.56795l1.0583-2.1905 0.0032-0.56206 0.35439-0.6791 0.35439-0.67909 0.35113-1.399 2.1472-4.6264 1.2875-2.7216v-0.362l2.1981-3.6852 0.39056 0.32413 0.39056 0.32414-0.38009-1.7305 1.3696-1.7956v-0.23578l1.7422-2.8422 1.9609-2.9104 0.92711-1.3007 0.59531-0.64504 0.59531-0.64503v-0.42178l2.9104-3.4306v-0.3624l4.101-4.4821 6.0854-6.2354 0.90224-0.47625 3.9383-3.6964 2.158-1.5875 1.6946-1.4543 3.8287-2.6467h0.53445l2.4966-1.9057 1.5127-0.52733v-0.4774h1.1058l0.87857-1.0166 6.656-3.349 3.1335-1.2313 1.5875-0.67076 1.8521-0.65571 2.9104-0.98431 3.4396-1.0891 2.3812-0.4928 3.175-0.79048 3.2189-0.82266 7.3644-1.2675 1.3229 0.09768 0.28437-0.2077 0.28438-0.2077 5.7812-0.81775 4.4979-0.49741 5.0271-0.77325 4.4979-0.3416 3.4396-0.73938 5.5562-0.83063 4.4979-0.9972 4.2333-0.89409 3.9688-1.2148 5.2917-1.7363 3.5563-1.2313 3.0583-1.7784 1.3229-0.39335 0.81791-0.71532 3.5088-1.591 0.17097-0.27663 0.17096-0.27663 2.8493-2.1049h0.76002l0.18858 4.2995 0.18859 4.2995-0.13134 14.155-0.13133 14.155-0.8279 10.207-1.0966 8.8431-0.38676 2.1167-0.38676 2.1167-0.6617 3.4396-0.6617 3.4396-0.77946 3.4396-0.55494 1.8521-0.55494 1.8521-0.21228 0.98735-0.21229 0.98735-0.26964 0.33557-0.26964 0.33556-0.12589 0.92605-0.12589 0.92604-0.93298 2.6458-0.66864 1.5875-1.7235 4.6273-0.70515 0.58522-0.35068 1.9312-1.8155 3.7017-0.75828 0.83789v0.78077l-1.6376 2.5823-0.46404 1.0932-0.73509 1.2035-0.7351 1.2035-0.6075 0.95564-0.60751 0.95564-0.69412 0.26636-0.15162 0.75812-0.15163 0.75813-0.67974 0.73346-0.67975 0.73345v0.26003l-2.1802 2.8877h-0.42993l-0.17022 0.53629-0.17021 0.53628-2.1484 2.4993-4.7567 5.1594h-0.71404l-0.38525 0.74501-0.38526 0.74501-7.434 6.8406-0.63464 0.21155-3.7281 3.1303-0.9005-0.23549 0.25444 0.66306-2.795 2.0552-1.0821 0.52917-3.693 2.4301-1.5328 1.0094-2.9651 1.9738-0.44748 0.01-0.7023 0.49299-0.70231 0.49298-7.1438 3.5993-1.2982 0.65686-1.2982 0.65685-1.5046-0.0428v0.48302l-1.9844 1.0031-5.5562 2.2511-2.1167 0.48846-4.4979 1.7673-5.2917 1.43-4.9095 1.273-1.4405 8e-3 -1.0614 0.37001-1.0614 0.37-5.0209 0.78903-4.325 0.63629-0.52543-0.32473-1.4847 0.56448-3.1899 0.1988-5.5562 0.55153-7.9375 0.84739-3.8925 0.2046-0.60541 0.47516-3.9688 0.92287-6.0441 1.8531-2.1579 0.99966-1.3229 0.79516-1.3229 0.79515-1.4552 0.57898v0.45832l-1.9749 1.342zm8.3519-6.8792h0.41249v-0.52917h-0.49794l-0.16352 0.26459-0.16352 0.26458zm-10.7-13.494h0.26458v-0.49794l-0.52917-0.32704v0.82498zm83.741-23.246 2.9104-0.10969 0.12435-0.11031 0.12435-0.11032-0.60818-1.1464-0.60818-1.1464-1.7475-2.1841-1.7475-2.1842-2.2326-2.3461-2.2326-2.3461-4.6212-3.6852-3.3842-2.1463-5.8208-2.8613-3.7914-1.3088-6.2621-1.4048-7.0128-0.47029-2.7775 0.2591-4.8855 0.57651-0.63673 0.76722 0.54112 0.35654 2.9381 3.9688 4.7948 4.8493 5.1857 3.882 0.52917 0.21077 2.1167 1.4409 5.8208 2.9324 7.1438 2.4156 5.8208 1.2906 4.7625 0.58412 2.6458 0.1362zm8.3173-0.71021 1.2077-0.16125 4.4979-1.0726 6.3004-2.1154 6.3996-3.0972 3.175-1.7805 6.5778-4.7264 7.2456-7.1964 2.1521-3.1224 3.9085-5.8208 3.2323-5.8208 1.8208-4.4979 1.4303-3.175 0.88299-2.6458 0.88299-2.6458 0.83108-3.175 0.83109-3.175 0.49904-1.7198 0.49905-1.7198 0.40412-1.9844 0.40413-1.9844 0.29052-1.9844 0.29051-1.9844 0.98572-6.6146 0.40178-3.5719 0.40177-3.5719 0.33616-5.4554 0.24272-1.6379 0.24271-1.6379 0.56124-19.05-0.35914-7.3163-0.68601-0.26325-4.5576 3.4774-5.9396 2.8299-6.0854 1.8783-8.9958 2.1547-5.5441 0.82969-5.0392 1.0261-4.7625 0.57326-9.2604 1.334-3.175 0.44578-6.0854 0.85219-9.7896 2.1652-2.3137 0.46012-6.3206 1.8898-4.8595 1.7581-3.47 1.5798-5.5259 2.7256-2.7242 1.7079-2.8991 1.9925-1.1571 0.99414-1.1571 0.99413-0.96979 0.71797-0.96979 0.71796-5.2042 5.7496-2.7648 3.7626-1.9577 3.9126-1.9577 3.9126-1.8834 5.9014-0.56672 4.0746-0.20573 0.34278-0.31622 3.3629-0.31622 3.3628 0.3038 3.384 0.30379 3.384 0.78113 3.7042 0.78113 3.7042 0.55945 1.8521 0.48138 1.0583 0.54334 1.4982 0.6582-0.2158 0.31644-0.94918 0.31644-0.94917 1.6754-8.1153 0.27682-12.965-0.45517-2.7781-0.45517-2.7781-1.0133-4.1737v-0.94154l0.66146-0.23073 0.64029 0.23513 1.0855 2.7763 1.0855 2.7763 0.51014 1.9946 0.51014 1.9946 0.39204 2.2824 0.39204 2.2825 0.34082 6.35-0.61227 6.0207-0.78589 3.7689-0.28662 0.92604h0.56727l6.4798-4.5498 6.7982-4.2235 10.135-5.6037 4.1961-2.424 2.5589-5.0271 1.5828-5.038 0.39633-2.2435 0.39634-2.2435 0.33772-5.097-0.64618-6.0155-0.52825-2.1167-0.52824-2.1167-2.3929-6.0649-0.14084-0.86792-0.14085-0.86793 0.33124-0.39911 0.33123-0.39912h1.3104l1.5801 1.6915 1.5366 3.044 1.5764 5.6139 0.40546 2.7306 0.40545 2.7306-4e-3 7.0758-0.78522 5.2095-1.269 4.5801-0.55499 1.3891-0.55499 1.3891h0.71798l4.9628-2.7257 8.2021-4.7664 6.35-3.9487 5.2917-3.478 4.0965-2.8978 1.1068-2.9533 0.65898-2.3812 0.65897-2.3812 0.14807-4.2396 0.14807-4.2396-0.84288-5.0146-0.10573-1.4057-0.10574-1.4057 0.44351-0.54771 0.44352-0.54771 1.1386 0.60934 1.4027 2.3936 0.6779 2.0395 0.67789 2.0395-3.6e-4 4.6302-3.6e-4 4.6302-0.42139 1.9844-0.4214 1.9844 0.18311 0.19304 0.1831 0.19304 6.3343-5.0839 6.0854-5.3908 5.5562-5.2931 10.104-10.283 3.3934-3.7042 3.1328-3.5719h0.69978v0.84006l-1.9414 3.5256-2.2178 3.7042-3.0632 4.7625-4.5516 6.0094-1.5875 2.0019-4.8736 5.4824-6.7681 6.6288-5.1746 4.442 0.4121 0.35238 4.4979 0.66695 5.5242 1.8518 4.6452 2.6186 2.5305 2.0162 2.8153 2.8349 0.87201 1.5973 0.872 1.5973 0.64708 2.4358-0.0896 0.6342-0.0897 0.6342-1.218 0.1726-8.5716-8.3934-3.0475-1.9972-2.837-1.2988-4.4343-1.3636-7.5045-0.28822-6.2538 4.5628-1.7198 1.2791-1.7198 1.2791-5.2917 3.4828-6.0854 3.7526-4.3508 2.5164-0.014 0.54078 3.3451 0.63456 4.9893 1.6159 5.5562 2.814 3.7042 2.5856 4.9636 4.7737 2.1615 2.6458 2.1615 2.6458 1.8996 2.6458 1.7153 2.9104 1.1802 3.175 0.14535 0.94874 0.14535 0.94875-0.41573 0.67267-0.55593-0.17644-0.55592-0.17644-2.8471-4.334-0.41809-0.81446-0.41808-0.81446-1.5965-2.1532-1.5965-2.1532-3.7655-3.9641-1.763-1.4333-1.763-1.4333-3.9688-2.6442-3.7241-1.8701-3.4196-1.3945-5.8208-1.5704-6.9632-0.33976-9.441 5.0477-4.9521 2.4744-10.394 5.71-5.8208 3.5506-0.07828 0.2177-0.07828 0.21769 9.417 0.25105 5.2917 1.1394 5.7704 1.9151 6.4004 3.2602 4.665 3.3596 5.1345 4.6086 1.5263 1.8891 1.5263 1.8891 3.4107 5.0305 1.3922 2.7783 0.83147 0.94376zm-87.031-34.252h0.26458v-0.79375h-0.52917v0.79375zm4.2333-12.435h0.26458v-0.52917h-0.52917v0.52917zm86.519-57.415h0.52916v-0.52917h-1.0583v0.52917zm43.54-7.9375h0.11668v-0.52917h-0.5604l0.32704 0.52917z" fill="#5c8d31"/><path d="m33.684 228.93h-0.23156l-0.67182-0.8095 0.31876-5.9374 1.0865-5.2917 0.2477-1.1906 0.2477-1.1906 1.6472-6.35 2.1391-6.8792 0.92736-2.5136 0.92736-2.5135 2.6892-6.35 3.3181-6.6146 1.081-6.9761v-8.9626l-0.54051-3.1127-0.54051-3.1127-3.1523-9.3154v-1.1779l1.0816-0.57885 1.5938 1.7062 1.8286 3.9057 1.5344 5.3994 0.48436 1.9844 0.48436 1.9844 0.0044 11.774 0.27502 4.2e-4 1.9678-2.5135 1.4614-1.919 3.7544-4.431 7.9386-7.678 1.172-2.6407 0.63392-2.4332 0.63392-2.4332 0.90605-5.9816 0.04244-13.758-0.48073-2.249-0.48073-2.249-0.80741-3.3269 0.17649-0.45321 0.17649-0.45322 0.93627 1.1471 1.885 5.2029 0.41308 1.4552 0.41308 1.4552 0.81475 4.7625 0.16261 3.4396 0.16261 3.4396-0.59189 5.8208-0.88491 4.6287 0.18982 0.18982 0.18982 0.18983 0.35374-0.25523 0.35374-0.25522 9.9828-6.6897 7.6729-4.4675 9.6288-5.2216 1.434-2.9231 1.434-2.9231 0.69344-2.3812 0.69345-2.3812 0.7586-4.2333 0.16772-2.3812 0.16773-2.3812-0.29353-3.0427-0.29353-3.0427-1.5439-5.8726-1.9146-4.4462-0.0421-1.1906-0.0421-1.1906 1.2477-0.1766 1.5809 1.4995 1.7286 3.4396 0.67872 2.6458 0.67873 2.6458 0.56124 2.9104 0.5578 6.0839-0.29249 3.0434-0.29249 3.0434-1.0112 4.9142-1.6267 4.6108-0.1066 0.49774 0.79596 0.1774 8.729-4.8472 9.2604-5.5587 10.722-7.1224 0.80168-1.1385 0.75951-2.3812 0.75952-2.3812 0.4239-2.494 0.42391-2.494v-5.5274l-0.37796-2.6798-0.37795-2.6798-0.1648-1.4777-0.16479-1.4777 0.39354-0.32661 0.39355-0.32661 1.0654 0.57017 1.8858 3.8322 0.39339 2.0738 0.3934 2.0738-1e-3 2.9533-1e-3 2.9533-0.4075 2.5136-0.4075 2.5135-0.14929 0.59531-0.14928 0.59531h0.77095l6.5625-5.3607 3.4396-2.9527 6.6146-6.0792 11.555-11.669 6.4363-7.275 0.39688-0.001022v0.51095l-1.9424 3.5901-2.3749 3.9688-2.8945 4.4979-3.7456 5.0271-1.0697 1.3229-1.0697 1.3229-4.7447 5.2917-1.9932 2.0799-1.9933 2.0799-8.3344 7.4356v0.43299l1.1906 0.26066 4.8121 0.79344 4.6353 1.6361 2.1155 1.1701 2.1154 1.1701 2.5692 1.886 1.6725 1.8065 1.6725 1.8065 1.4331 2.633 0.36642 1.4275 0.36643 1.4275-0.25146 0.66146h-1.1411l-7.4012-7.45-3.175-2.2778-3.7042-1.8395-3.4396-1.1152-3.4396-0.54267-5.297-4e-3 -6.3446 4.736-1.3229 0.99633-5.0271 3.4527-9.2604 5.7846-1.7859 1.0368-1.7859 1.0368v0.67372l0.59531 0.1289 0.59532 0.12891 1.8521 0.44014 1.8521 0.44015 4.4979 1.5787 3.7042 1.849 4.4772 2.9849 4.9918 4.7625 4.3499 5.2917 2.9244 4.3012 1.6027 3.3717 0.53094 2.9104-0.39988 0.41422-0.40483-0.15534-0.40482-0.15535-1.4254-2.239-1.4254-2.239-2.0728-3.2985-1.5135-1.8521-1.5135-1.8521-4.1606-3.9967-1.5875-1.2062-1.5875-1.2062-3.5631-2.1788-3.5806-1.7967-1.9844-0.71386-1.9844-0.71387-5.2917-1.293-6.3871-0.33301-8.9588 4.7453-4.4979 2.2887-6.35 3.426-6.6146 3.7216-4.6302 2.8607v0.74514l4.101-0.30778 6.0854 0.61227 4.8993 1.0183 4.8903 1.6332 6.35 3.094 4.7374 3.2176 4.2585 3.7836 3.6386 4.031 2.7453 3.7042 1.1472 1.9844 1.1472 1.9844 2.0313 3.4614 1.329 3.9074v1.1654l-0.66146 0.53302-1.1223-0.42589-1.3982-2.4686-1.3982-2.4686-1.5498-2.9104-1.8295-2.4403-1.8295-2.4403-5.1126-5.3266-4.5454-3.5819-1.5838-1.0324-1.5838-1.0324-4.8498-2.5146-6.0534-2.0873-5.5082-1.1761-8.9801-0.2669-5.2875 0.67383-1.6969 0.709-1.8074 1.5201-1.8074 1.5201-6.0854 6.104-5.0701 6.3446-3.189 4.7625-2.3798 3.9688-1.1719 2.3002 0.29636 0.29636 4.1062-1.2063 3.175-0.81757 9.2604-0.0436 4.7625 0.96808 3.7042 1.2296 4.7625 2.2001 5.0281 3.1423 3.985 3.5841 3.0255 3.291v1.0251l-0.41577 0.41578-0.41577 0.41577h-0.70034l-1.946-1.3953-1.946-1.3953-4.6663-3.1031-4.8587-2.4834-4.9713-1.9708-5.612-1.3465-7.0562-0.28862-3.7917 0.67558-4.2173 1.2602-1.5955 0.82101-1.5955 0.821-1.7247 1.2922-0.55523 1.0883-0.55523 1.0883-0.51122 1.476-0.51122 1.476-2.9015 8.7312-1.6286 6.35-0.75457 3.4396-0.40996 1.6458-0.40996 1.6458-1.2839 2.6614z" fill="#54822d"/></g></g></svg>
