<?xml version="1.0" encoding="UTF-8"?>
<!-- Created with Inkscape (http://www.inkscape.org/) -->
<svg width="512" height="512" version="1.1" viewBox="0 0 512 512" xmlns="http://www.w3.org/2000/svg">
 <path d="m41.45 446.6c-4.0186-1.7646-8.2234-6.8677-8.9678-10.884-0.32831-1.7713-0.44565-22.796-0.26076-46.721 0.39041-50.519 0.24125-49.611 9.704-59.074 14.555-14.555 3.6348-9.3735 95.574-9.596 44-0.10649 78.875 0.15786 77.5 0.58742-8.41 2.6274-15.902 8.9811-20.144 17.083l-1.856 4.5-1 47.678c-0.96862 46.182-0.56436 47.765-2.5618 50.438-1.134 1.5179-3.3042 3.6876-4.8228 4.8215-2.7189 2.0303-3.8095 2.0652-71.438 2.2834-55.568 0.17931-69.259-0.034-71.727-1.1174zm52.095-25.059c1.5472-1.5472 2.4545-3.5971 2.4545-5.5454s-0.90731-3.9982-2.4545-5.5454c-2.4346-2.4346-2.6094-2.4546-21.545-2.4546s-19.111 0.01991-21.545 2.4546c-1.5472 1.5472-2.4545 3.5971-2.4545 5.5454s0.90731 3.9982 2.4545 5.5454c2.4346 2.4346 2.6094 2.4546 21.545 2.4546s19.111-0.0199 21.545-2.4546zm80 0c1.8486-1.1708 1.8546-3.5971 1.8546-5.5454s-0.30731-3.9982-1.8546-5.5454l-2.4545-1.5546-27.091-0.9-27.091 1.1-2.4545 1.3546c-1.9158 1.0572-2.2546 3.5971-2.2546 5.5454s0.70731 3.9982 2.2546 5.5454l2.4545 1.5546 27.091 0.9 27.091-0.9zm0-32c2.5382-1.8628 1.8011-9.2898 0-11.091l-2.4545-1.6546-59.091-0.8-58.991 0.8-2.5545 1.6546c-1.8365 1.1895-1.7545 3.5971-1.7545 5.5454s0.20731 3.9982 1.7545 5.5454l2.4545 1.6546 59.091 0.8 59.291-0.8zm-64-32c2.2854-1.5405 3.2474-7.8436 0-11.091l-2.4545-1.2546-27.091-1.2-27.091 1.1-2.4545 1.3546c-1.9158 1.0572-2.4545 3.5971-2.4545 5.5454s0.90731 3.9982 2.4545 5.5454l2.4545 1.6546 27.091 0.8 27.091-0.8zm64 0c1.5472-1.5472 2.4546-3.5971 2.4546-5.5454s-0.90731-3.6978-2.4546-5.245c-2.4346-2.4346-11.287-2.755-21.545-2.755-7.5724 0-19.111 0.0199-21.545 2.4546-1.5472 1.5472-2.4546 3.5971-2.4546 5.5454s0.90731 3.9982 2.4546 5.5454c2.4346 2.4346 2.6094 2.4546 21.545 2.4546s19.111-0.0199 21.545-2.4546zm53.089-167.62c-2.5795-2.029-2.6349-2.3197-2.6349-13.826 0-16.34-0.28678-16.102 19.391-16.102h15.963l2.523 2.9231c2.6307 3.0479 2.123 3.1876 2.123 13.077s1.3056 10.671-1.923 13.077l-3.9232 2.9231h-14.442c-13.096 0-14.688-0.19311-17.077-2.0726zm-110.76-98.677c-1.2439-1.5861-1.2085-1.6214 0.37756-0.37756 0.9625 0.75484 1.75 1.5423 1.75 1.75 0 0.82303-0.82119 0.2933-2.1276-1.3724zm-0.87244-37.628c0-0.20766 0.7875-0.99516 1.75-1.75 1.5861-1.2439 1.6214-1.2085 0.37756 0.37756-1.3064 1.6657-2.1276 2.1955-2.1276 1.3724z" fill="#efe0cc"/>
 <path d="m52.321 422.81c-3.2638-1.5779-4.8485-6.1239-3.3749-9.6816 1.8762-4.5296 4.5732-5.1297 23.054-5.1297 10.435 0 17.855 0.43242 19.385 1.1297 5.5538 2.5305 5.5538 11.21 0 13.741-3.1923 1.4545-36.036 1.4049-39.064-0.059zm64 0c-3.2638-1.5779-4.8485-6.1239-3.3749-9.6816 1.979-4.7778 4.1096-5.1297 31.054-5.1297 16.381 0 25.755 0.3867 27.385 1.1297 5.5538 2.5305 5.5538 11.21 0 13.741-3.2623 1.4864-51.976 1.4342-55.064-0.059zm-64-32c-1.1984-0.57936-2.7154-2.3489-3.3713-3.9323-1.5306-3.6952 0.14172-8.144 3.6648-9.7492 1.75-0.79734 19.222-1.1297 59.385-1.1297 40.164 0 57.635 0.33238 59.385 1.1297 1.3637 0.62135 3.0145 2.4214 3.6684 4 1.527 3.6866-0.14906 8.137-3.6684 9.7406-3.3472 1.5251-115.9 1.4693-119.06-0.059zm0-32c-3.2638-1.5779-4.8485-6.1239-3.3749-9.6816 1.979-4.7778 4.1096-5.1297 31.054-5.1297s29.075 0.35195 31.054 5.1297c1.527 3.6866-0.14906 8.137-3.6684 9.7406-3.2623 1.4864-51.976 1.4342-55.064-0.059zm80 0c-3.2638-1.5779-4.8485-6.1239-3.3749-9.6816 1.8762-4.5296 4.5732-5.1297 23.054-5.1297s21.178 0.6001 23.054 5.1297c1.527 3.6866-0.14906 8.137-3.6684 9.7406-3.1923 1.4545-36.036 1.4049-39.064-0.059zm129.22-169.27c2.311-2.311 2.4546-3.1032 2.4546-13.545s-0.14357-11.234-2.4546-13.545l-2.4545-2.4546h11.531c11.412 0 11.562 0.0303 14.455 2.9231 2.8469 2.8469 2.9231 3.1876 2.9231 13.077s-0.0761 10.23-2.9231 13.077c-2.8928 2.8928-3.0426 2.9231-14.455 2.9231h-11.531z" fill="#b7ad9a"/>
 <path d="m48 472v-24h32v48h-32zm192-16v-40h32v80h-32zm160 0v-40h32v80h-32zm-207.83-91.75c0.31065-18.875 0.23918-20.997 2.9449-26.236 7.7156-14.941 15.497-17.391 30.38-17.937 8.5711-0.31449 8.8258-0.0651 5.3442 1.2459-6.1922 2.3318-12.66 6.5665-15.196 9.9494-5.5753 7.4372-7.0541 11.757-7.0953 20.728-0.0337 7.3361 0.32898 9.1994 2.6487 13.607 1.4782 2.8091 3.8004 6.4298 5.1604 8.046 2.7319 3.2466 13.713 8.8684 18.476 10.009 1.6841 0.40308-9.1593 0.17934-21.163 0.23564l-21.825 0.10236zm-166.12 10.5c-12.666-12.406-12.865-32.714-0.44272-45.137 6.1335-6.1335 13.006-8.8104 23.768-9.2583 8.8066-0.36654 8.9788-0.33275 5.016 0.98428-9.6255 3.199-17.66 11.902-20.533 21.449-0.90316 3.001-1.363 9.8776-1.363 20.371 0 8.7126 0.44146 15.841 0 15.841-0.44146 0-4.0579-1.9125-6.4445-4.25zm101.94-118.75v-64h192v-80h32v208h-32v-96h-160v32h-2.3521c-3.1562 0-8.5825 3.7792-11.374 7.9217-2.1832 3.2396-2.2738 4.199-2.2738 24.078s0.0906 20.839 2.2738 24.078c1.2506 1.8558 3.7921 4.3973 5.6479 5.6479l3.3741 2.6738-13.648-0.1-13.648 0.1zm0-120v-24h32v48h-32zm-6.5496-41.4c-4.0633-1.7792-8.2234-6.8735-9.0019-11.023-0.34711-1.8502-0.47751-8.3306-0.28979-14.401 0.36884-11.927 1.2255-14.134 7.2264-18.614 2.7499-2.0531 3.2238-2.0618 112.61-2.0618s109.86-1.0911 112.61 0.962c6.3899 4.7707 6.8851 7.4125 6.8851 22.538 0 15.125-0.49517 16.667-6.8849 21.438-2.745 2.0496-3.4047 2.0631-111.44 2.2797-88.822 0.17808-109.23-0.02607-111.73-1.1175z" fill="#f8bc18"/>
 <path d="m80 472v-24h32v48h-32zm192-16v-40h-32v-31.773l-4.719-0.70765c-5.2977-0.79444-12.506-4.1554-16.972-7.9127-1.6367-1.3772-4.5134-5.3396-6.3926-8.8054-3.1369-5.7853-3.4146-6.9976-3.3905-14.801 0.0238-7.7305 0.33314-9.0704 3.4167-14.801 3.7624-6.9926 6.8718-10.006 14.45-14.004l5.1074-3.6946 60.25-0.08 60.25 0.52018v-207.94h-32v-16.723l10.93-0.33848c11.808-0.36567 14.032-0.33352 18.508-6.3203 1.7284-2.312 1.9167-4.5422 2.2028-13.794 0.18772-6.0702-0.14191-12.551-0.489-14.401-0.77917-4.1533-4.5428-9.248-8.6024-11.016-2.6503-1.1544 0.032-1.3334 20.489-1.3675 22.462-0.03735 23.742 0.0637 28 2.2109 6.9339 3.4966 8.9676 8.4356 8.9399 21.712-0.0318 15.257-3.4981 21.456-13.188 23.584l-2.7904 0.61287v223.76l87.5 0.57934 5.5865 2.6198c20.091 9.4216 24.92 35.807 9.3959 51.331-4.3446 4.3446-12.061 8.2133-18.226 9.1378l-4.2569 0.63836v111.77h-32v-80h-32v-32h-96v112h-32zm-112-216v-16h32v32h-32zm13.545-50.455c1.35-1.35 2.4546-3.6504 2.4546-4.5004 0-1.2652 1.451-1.045 8-1.045h8v8h-20.909zm2.4546-22.09c0-0.85-1.1046-3.6504-2.4546-5.0004-2.0159-2.0159-3.4456-2.4546-8-2.4546h-5.5454v-48h-32v-16.5h64v72.5h-8c-6.549 0-8 0.72015-8-0.545z" fill="#f4861c"/>
 <path d="m153.18 319.82c-1.8262-0.89991-4.5109-2.2986-6.145-4.154-1.4829-1.6838-2.2986-4.7325-3.035-6.008-1.3947-2.4157-0.5-21.656-0.5-21.656s-0.0132-20.767 0.5-21.656c0.60279-1.044 1.6413-4.0174 3.035-5.6313 1.6697-1.9335 4.9698-4.2651 6.145-4.58 1.8239-0.4887 21.162-0.133 45.221-0.133h41.599v-16h5.5454c4.5544 0 5.9841 0.43865 8 2.4546 2.0159 2.0159 2.4546 3.4456 2.4546 8v5.5454l14.25 0.0391c12.728 0.035 45.43 0.18159 42.75 1.3725-3.6777 1.6346-38.514 5.1566-39.933 8.9035-0.61834 1.632-1.0666 10.746-1.0666 21.685s0.44827 20.053 1.0666 21.685c1.4197 3.7469 36.256 7.2689 39.933 8.9035 2.5396 1.1287-38.323 1.6358-92.5 1.6496-57.259 0.0147-64.349 1.0439-67.32-0.42zm-38.725-146.27c-1.5472-1.5472-2.4546-3.5971-2.4546-5.5454s0.90731-3.9982 2.4546-5.5454l2.4545-2.4546h54.182l2.4545 2.4546c1.5472 1.5472 2.4546 3.5971 2.4546 5.5454s-0.90731 3.9982-2.4546 5.5454l-2.4545 2.4546h-54.182zm120.47-24.469c-3.4265-3.4265-3.6718-5.8553-0.94187-9.3259 2.2698-2.8855 34.718-19.751 38-19.751 1.4325 0 3.6047 1.4573 5.327 3.2165 1.5211 1.5537 2.6914 3.3429 2.6914 4.5717 0 1.0681-0.89154 3.0755-1.9812 4.4608-2.2698 2.8855-34.718 19.751-38 19.751-1.1948 0-3.4877-1.3154-5.0954-2.9231zm0-32c-5.5817-5.5817-3.2632-9.4341 9.8336-16.34l8.985-4.7374h13.129c7.221 0 13.129 0.38931 13.129 0.86514 0 2.7938-5.8672 6.8723-20.886 14.519-9.3079 4.7389-17.901 8.6162-19.096 8.6162-1.1948 0-3.4877-1.3154-5.0954-2.9231zm-2.9231-69.942c0-2.7938 5.8672-6.8723 20.886-14.519 9.3079-4.7389 17.901-8.6162 19.096-8.6162 2.6977 0 8.0184 5.168 8.0184 7.7882 0 3.4255-3.5539 6.6222-12.757 11.474l-8.985 4.7374h-13.129c-7.221 0-13.129-0.38931-13.129-0.86514z" fill="#53586c"/>
 <path d="m281.45 318.59c-4.0092-1.7463-8.7201-6.848-9.4744-10.873-0.33195-1.7713-0.46236-11.852-0.28979-22.401 0.28685-17.536 0.4905-19.416 2.3755-21.938 4.9504-6.6224 6.2987-6.8526 27.008-7.1924l18.93-0.31061v64.121l-17.75-0.0391c-12.485-0.0275-18.655-0.43317-20.8-1.3675zm-25.45-68.139c0-4.5544-0.43865-5.9841-2.4546-8-2.0159-2.0159-3.4456-2.4546-8-2.4546h-5.5454v-16h32v32h-16zm-138.98-59.739c-3.6215-1.8324-4.9884-5.3608-5.005-12.92l0.38526-6.7045 2.0546 2.4545 2.4545 2.4546h54.182l2.4545-2.4546c1.35-1.35 2.4546-3.9504 2.4546-4.8004 0-1.351 3.0196-0.745 24-0.745h24v16h-23.879l-23.878 0.4-1.1893 2.97c-0.63519 1.5863-2.3047 3.4786-3.6684 4.1-3.6338 1.6557-51.054 0.921-54.366-0.75445zm123.04-34.466 0.0643-3.75 31.871-15.453v22.953h-32zm0-28.524 0.0643-7.2265 31.871-15.453-0.1286 14.453-31.871 15.453zm-0.06435-28.212v-3.5144h6.6667c3.6667 0 6.4792 0.17167 6.25 0.38148-0.22917 0.20982-3.2292 1.7913-6.6667 3.5144l-6.25 3.1329zm19.083-51.896c0.22917-0.20982 3.2292-1.7913 6.6667-3.5144l6.25-3.1329v7.0288h-6.6667c-3.6667 0-6.4792-0.17167-6.25-0.38148zm-18.934-17.566c0.3024-7.765 0.66295-9.3119 2.6283-11.276 2.0905-2.0895 3.1712-2.2767 13.145-2.2767 9.0942 0 11.194 0.29609 12.873 1.8148 4.4393 4.0175 3.7024 4.7469-13.095 12.961l-15.901 7.7762z" fill="#453b4a"/>
</svg>
