<?xml version="1.0" encoding="UTF-8"?>
<!-- Created with Inkscape (http://www.inkscape.org/) -->
<svg width="103mm" height="46mm" version="1.1" viewBox="0 0 103 46" xml:space="preserve" xmlns="http://www.w3.org/2000/svg"><g stroke-linecap="round" stroke-linejoin="round" stroke-width="1.3229"><rect x="-.14925" width="103.58" height="46.267" fill="#0b0b23"/><path transform="rotate(34.3 47.351 -34.522)" d="m69.55 16.865-2.2003-2.1044-2.7249 1.3581 2.1044-2.2003-1.3581-2.7249 2.2003 2.1044 2.7249-1.3581-2.1044 2.2003z" fill="#fff"/><path transform="translate(2.5372 .74625)" d="m35.223 27.462-3.2821 0.70331-0.44913 3.3264-0.70331-3.2821-3.3264-0.44914 3.2821-0.70331 0.44914-3.3264 0.70331 3.2821z" fill="#feffff"/><g fill="#fff"><path d="m20.596 21.492-1.5472 0.13886-0.39304 1.5029-0.13886-1.5472-1.5029-0.39304 1.5472-0.13886 0.39304-1.5029 0.13886 1.5472z"/><path transform="translate(1.4925)" d="m7.6117 24.178-2.691 0.33832-0.5925 2.6467-0.33832-2.691-2.6467-0.5925 2.691-0.33832 0.5925-2.6467 0.33832 2.691z"/><path d="m54.028 8.6565-1.8565 0.012126-0.53147 1.7789-0.01213-1.8565-1.7789-0.53147 1.8565-0.012126 0.53147-1.7789 0.01213 1.8565z"/></g><path d="m43.73 33.88-2.4863 0.23903-0.4987 2.4475-0.23903-2.4863-2.4475-0.4987 2.4863-0.23903 0.4987-2.4475 0.23903 2.4863z" fill="#e0f3f7"/><path d="m27.014 20.149-0.72683-0.42227-0.61641 0.57152 0.42227-0.72683-0.57152-0.61641 0.72683 0.42227 0.61641-0.57152-0.42227 0.72683z" fill="#fff"/><path d="m18.955 44.775-1.285-0.60428-0.95374 1.052 0.60428-1.285-1.052-0.95374 1.285 0.60428 0.95374-1.052-0.60428 1.285z" fill="#fff"/></g></svg>
