<?xml version="1.0" encoding="UTF-8"?>
<!-- Created with Inkscape (http://www.inkscape.org/) -->
<svg width="109.71mm" height="107.45mm" version="1.1" viewBox="0 0 109.71 107.45" xml:space="preserve" xmlns="http://www.w3.org/2000/svg"><g transform="translate(-49.971 -94.902)"><path transform="scale(.26458)" d="m341.46 748.83c-7.1542-13.555-17.62-32.443-18.572-33.519-0.4781-0.53988-24.623 3.2824-40.846 6.4662l-15.53 3.0477-0.57836-14.565c-0.78193-19.691-2.3916-41.613-3.1064-42.307-1.0836-1.0519-17.689-6.152-35.006-10.752-9.4662-2.5143-17.687-4.741-18.268-4.9481-0.67874-0.24201 1.9525-7.4388 7.3621-20.137 4.6301-10.868 9.365-22.719 10.522-26.335l2.1038-6.5754-4.0307-4.1656c-2.2169-2.2911-9.5338-8.9698-16.26-14.842-6.726-5.8718-14.063-12.572-16.305-14.89l-4.0764-4.2141 6.7939-6.53c3.7367-3.5915 12.807-11.749 20.155-18.127 8.2885-7.1939 13.361-12.238 13.361-13.286 0-2.6869-4.774-15.368-12.967-34.444-4.9244-11.466-7.2385-17.868-6.5949-18.246 0.54531-0.31981 9.6748-2.8865 20.288-5.7037 10.613-2.8172 22.434-6.275 26.27-7.6838l6.9735-2.5616 0.61191-5.7755c0.33655-3.1765 1.0893-15.763 1.6728-27.969s1.2072-22.345 1.3859-22.531c0.17874-0.18538 10.432 1.5365 22.785 3.8264s24.906 4.4023 27.895 4.6942l5.4352 0.53071 3.0788-5.263c1.6933-2.8946 7.5278-13.62 12.965-23.833s10.239-18.928 10.669-19.365c0.44521-0.45186 8.3311 4.6606 18.287 11.855 16.946 12.247 27.355 19.285 28.52 19.285 1.2297 0 13.332-8.1268 28.568-19.185 8.8179-6.3995 16.563-11.837 17.211-12.082 0.78116-0.29607 4.1999 5.2829 10.137 16.543 4.9271 9.3441 10.988 20.387 13.468 24.539l4.51 7.5498 5.5546-0.57043c3.055-0.31373 15.464-2.4303 27.575-4.7034s22.244-3.9096 22.517-3.6366 0.65868 3.8838 0.857 8.0238c1.0688 22.313 2.2826 42.336 2.7414 45.224l0.52009 3.2743 11.906 3.7035c6.5485 2.0369 18.429 5.4061 26.4 7.4871s14.802 4.059 15.178 4.3956c0.37636 0.3366-2.6215 8.3345-6.6619 17.773-4.0404 9.4386-8.731 21.217-10.424 26.175l-3.0774 9.0141 2.9454 3.0914c1.62 1.7003 8.4485 7.8946 15.174 13.765 6.726 5.8706 14.419 12.92 17.096 15.664l4.867 4.9905-3.0074 3.7423c-1.6541 2.0583-9.3473 9.188-17.096 15.844s-15.414 13.489-17.034 15.184l-2.9454 3.0825 3.0587 9.0141c1.6823 4.9577 6.4182 16.881 10.524 26.497 4.1061 9.6157 7.3162 17.593 7.1336 17.726-0.18262 0.13368-9.3 2.6197-20.261 5.5245s-22.969 6.3877-26.685 7.7398c-5.7986 2.11-6.856 2.829-7.4617 5.0739-0.38812 1.4386-1.1435 11.991-1.6786 23.45-1.3235 28.341-1.5496 30.348-3.4183 30.338-0.83603-4e-3 -8.8575-1.4482-17.826-3.2086-14.239-2.7952-32.373-5.7757-35.443-5.8256-1.2859-0.0209-8.4652 12.113-19.42 32.821-4.6782 8.8434-8.8223 16.079-9.2092 16.079-0.38689 0-7.3997-4.8602-15.584-10.8-16.179-11.743-27.857-19.773-29.89-20.553-1.4722-0.56493-8.6994 4.1664-31.419 20.569l-15.957 11.52z" fill="#f5c525"/><path d="m111.33 184.97c15.242-2.6057 27.312-14.703 30.083-30.149 0.63844-3.5597 0.63326-9.1075-0.0119-12.709-2.759-15.402-14.7-27.33-30.15-30.117-3.5911-0.64775-9.1172-0.64451-12.735 7e-3 -15.395 2.7746-27.335 14.717-30.111 30.119-0.64819 3.596-0.65268 9.14-0.01027 12.7 2.9896 16.565 16.242 28.832 33.037 30.582 2.5285 0.26333 6.9588 0.0695 9.8984-0.43303z" fill="#f6b413"/></g></svg>
