<?xml version="1.0" encoding="UTF-8"?>
<!-- Created with Inkscape (http://www.inkscape.org/) -->
<svg width="103" height="46" version="1.1" viewBox="0 0 27.252 12.171" xml:space="preserve" xmlns="http://www.w3.org/2000/svg"><g transform="translate(-92.068 -106.17)"><rect transform="translate(5.4167e-7)" x="92.068" y="106.17" width="27.234" height="12.159" ry="0" fill="#4eb8d2" stroke-linecap="round" stroke-linejoin="round" stroke-width="1.3229"/><path d="m108.83 115.29c-0.65536-0.37837-0.42973-2.9135 0.39203-2.9135 1.1151 0 0.41168-0.48773 0.79375-1.1495 0.34145-0.59141 1.1361-1.2318 1.6371-1.2318 0.30242 0 0.58843-0.23813 0.74419-0.52917 0.23387-0.437 0.55399-0.52917 1.8379-0.52917 1.4112 0 1.6179 0.0751 2.2396 0.81406 0.37674 0.44772 0.68498 1.0972 0.68498 1.4432 0 0.34602 0.29766 0.92678 0.66146 1.2906 0.81373 0.81373 0.87266 2.0618 0.13229 2.8022-0.4819 0.4819-0.88194 0.52916-4.4787 0.52916 0 0-3.227 3e-3 -3.8762-0.17109-0.64917-0.17394-0.2902-0.0789-0.76835-0.35496z" fill="#fff"/><path d="m108.83 115.29c-0.65536-0.37837-0.42973-2.9135 0.39203-2.9135 1.1151 0 0.41168-0.48773 0.79375-1.1495 0.34145-0.59141 1.1361-1.2318 1.6371-1.2318 0.30242 0 0.58843-0.23813 0.74419-0.52917 0.23387-0.437 0.55399-0.52917 1.8379-0.52917 1.4112 0 1.6179 0.0751 2.2396 0.81406 0.37674 0.44772 0.68498 1.0972 0.68498 1.4432 0 0.34602 0.29766 0.92678 0.66146 1.2906 0.81373 0.81373 0.87266 2.0618 0.13229 2.8022-0.4819 0.4819-0.88194 0.52916-4.4787 0.52916 0 0-3.227 3e-3 -3.8762-0.17109-0.64917-0.17394-0.2902-0.0789-0.76835-0.35496zm8.8058-0.32061c0.54801-0.54802 0.37156-1.7182-0.34396-2.2811-0.45557-0.35835-0.66146-0.77985-0.66146-1.3541 0-0.5428-0.23743-1.0713-0.68024-1.5141-0.41807-0.41807-1.3146-0.35955-1.7687-0.35955-0.62065 0-1.2418 0.24628-1.4393 0.52833-0.19297 0.27551-0.67698 0.53847-1.0756 0.58437-0.51519 0.0593-0.85277 0.33989-1.1676 0.97049-0.2436 0.48787 0.0812 1.2718-0.99218 1.2718-0.1184 0.0317-1.1934 0.99566-0.1335 2.0556 0.33902 0.33902 1.1108 0.41578 4.1804 0.41578 2.5753 0 3.865-0.10031 4.0821-0.3175z" fill="#fff"/></g></svg>
