<?xml version="1.0" encoding="UTF-8"?>
<!-- Created with Inkscape (http://www.inkscape.org/) -->
<svg width="19.488mm" height="19.514mm" version="1.1" viewBox="0 0 19.488 19.514" xml:space="preserve" xmlns="http://www.w3.org/2000/svg"><g transform="translate(-95.262 -139.25)"><path d="m102.3 158.61c-0.0699-0.0451-0.0889-0.0821-0.0423-0.0821s0.14182 0.0369 0.21167 0.0821c0.0699 0.0451 0.0889 0.0821 0.0423 0.0821s-0.14182-0.0369-0.21167-0.0821zm5.1489 0.0268c0.0611-0.0245 0.13415-0.0215 0.16228 7e-3 0.0281 0.0281-0.0219 0.0481-0.11113 0.0445-0.0986-4e-3 -0.11869-0.0241-0.0512-0.0512zm0.35455-0.0972c0.0699-0.0432 0.22225-0.10395 0.33867-0.13509 0.14711-0.0394 0.17293-0.0327 0.0847 0.0219-0.0699 0.0432-0.22226 0.10395-0.33867 0.13509-0.14711 0.0394-0.17294 0.0327-0.0847-0.0219zm-5.9479-0.0704c0.0582-0.0235 0.15346-0.0235 0.21167 0 0.0582 0.0235 0.0106 0.0427-0.10583 0.0427-0.11642 0-0.16405-0.0192-0.10584-0.0427zm6.8484-0.23296c0.19255-0.0649 0.42694-0.15904 0.52087-0.2093l0.17078-0.0914-0.0439 0.16786c-0.0319 0.12196-0.11645 0.16819-0.30919 0.16903-0.14592 6.3e-4 -0.36055 0.0193-0.47697 0.0414-0.11642 0.0222-0.0541-0.0128 0.13841-0.0776zm-8.8345-0.6708c-0.75382-0.44409-1.0227-0.66107-2.0019-1.6152-0.42596-0.41508-0.64681-0.65244-0.49077-0.52746 0.15604 0.12499 0.49894 0.43309 0.76201 0.68467 0.8205 0.78466 1.1373 1.0336 1.7269 1.3574 0.31417 0.17251 0.59264 0.34834 0.61884 0.39072 0.0687 0.11118 0.0558 0.10506-0.61504-0.2901zm9.9544 0.114c0.10994-0.0936 0.24957-0.17018 0.31029-0.17018 0.16493 0 1.2879-0.87481 1.618-1.2604 0.15843-0.18509 0.44927-0.45985 0.64632-0.61058 0.2256-0.17256 0.11325-0.0294-0.30341 0.38659-0.46798 0.46724-0.63528 0.68701-0.57151 0.75078 0.12988 0.12988 0.1109 0.3103-0.0326 0.3103-0.0675 0-0.15394-0.0557-0.192-0.12366l-0.0692-0.12366-0.37555 0.29718c-0.20655 0.16345-0.56783 0.39093-0.80285 0.50551l-0.4273 0.20833zm-0.15754-0.29334c0-0.0267 0.0469-0.12354 0.10418-0.21529l0.10418-0.16682-0.12535-0.11173c-0.0689-0.0614-0.3349-0.18305-0.59102-0.27022-0.25612-0.0872-0.57045-0.22802-0.69851-0.31298-0.12807-0.085-0.3456-0.23069-0.48342-0.32383-0.13781-0.0931-0.3046-0.16933-0.37064-0.16933-0.066 0-0.1663-0.0557-0.22281-0.12381-0.0565-0.0681-0.31586-0.20354-0.57633-0.30099-0.61481-0.23003-0.62161-0.23521-0.53146-0.40464 0.0422-0.0793 0.0974-0.21092 0.12262-0.29242 0.0252-0.0815 0.11859-0.14817 0.20748-0.14817 0.34351 0 0.40868-0.40568 0.21567-1.3426l-0.0411-0.19963-0.22311 0.0427c-0.14572 0.0279-0.30521-0.0181-0.45982-0.13236l-0.23671-0.175-0.2176 0.0991c-0.30144 0.13735-1.1164 0.12403-1.6144-0.0264-0.44903-0.13563-0.64243-0.10788-0.95623 0.13718-0.11105 0.0867-0.2738 0.15769-0.36165 0.15769-0.23966 0-0.37293 0.36117-0.26411 0.71575 0.1008 0.32842 0.073 0.38493-0.18932 0.38493-0.18778 0-0.46469-0.23745-0.46469-0.39847 0-0.0488-0.0567-0.13586-0.126-0.19337l-0.126-0.10457-0.0433 0.13653c-0.0238 0.0751-0.0628 0.19798-0.0867 0.27308l-0.0433 0.13654-0.12686-0.10529c-0.0868-0.0721-0.32587-0.0925-0.75751-0.0648l-0.63064 0.0405-0.20396-0.13523c-0.30861-0.20462-0.64974-0.64615-0.64974-0.84097 0-0.0953-0.0381-0.19683-0.08467-0.22561-0.04657-0.0288-0.08467-0.15051-0.08467-0.27051v-0.21818l0.75808 0.104 0.09265-0.17313 0.09265-0.17312-0.13107-0.20004c-0.17802-0.2717-0.24526-0.77631-0.15797-1.1856l0.07222-0.33867 0.18631-0.027c0.10247-0.0148 0.23427-0.0951 0.29289-0.17832 0.0586-0.0833 0.26608-0.23258 0.46102-0.33185 0.44074-0.22443 0.78721-0.17119 1.0309 0.15842l0.17666 0.23895-0.0931 0.26698c-0.12303 0.35292-0.0159 0.57555 0.42341 0.87999l0.34662 0.24021 0.29267-0.0549c0.42464-0.0797 0.6255-0.28541 0.79221-0.81151l0.14756-0.46567 0.29633-0.0275c0.55591-0.0516 0.80852-0.48102 0.57909-0.98456-0.11201-0.24584-0.25344-0.26121-0.87542-0.0951-0.53149 0.14191-0.72016 0.0594-0.71839-0.31398 2e-3 -0.37292 0.0743-0.45861 0.44756-0.52863 0.17681-0.0332 0.36801-0.10685 0.4249-0.16374 0.0569-0.0569 0.18837-0.14888 0.29218-0.20444l0.18876-0.10102v-0.45233c0-0.52264-0.10855-0.65603-0.49705-0.61079-0.14765 0.0172-0.28468 5e-3 -0.30453-0.0271-0.0524-0.0847 0.33345-0.85551 0.47222-0.94339 0.21402-0.13553 0.51187-0.0874 0.55833 0.0903 0.0677 0.25877 1.1654 0.85057 1.7536 0.9454l0.50093 0.0808 0.47276-0.18936c0.55783-0.22344 0.61161-0.28468 0.50235-0.57206-0.0561-0.14761-0.0537-0.22656 7e-3 -0.24696 0.0495-0.0165 0.09-0.17513 0.09-0.35254 0-0.32482 0.096-0.42471 0.4091-0.42586 0.0777-2.9e-4 0.25427-0.0595 0.39242-0.1315l0.25117-0.13097 0.2145 0.10679c0.11797 0.0587 0.27402 0.17798 0.34676 0.26499 0.13772 0.16472 1.0388 0.56748 1.2712 0.56816 0.0734 2.2e-4 0.2229-0.0949 0.33227-0.21128 0.10936-0.11642 0.24711-0.21167 0.3061-0.21167 0.18194 0 0.22666 0.17491 0.0734 0.287l-0.14549 0.10639 0.1138 0.51846 0.3791 0.14478c0.44683 0.17064 0.60259 0.13143 0.67844-0.1708 0.0397-0.1581 4e-3 -0.29235-0.12448-0.46587-0.0991-0.13407-0.18036-0.35008-0.18054-0.48003-3.6e-4 -0.26859-0.26061-0.73586-0.57018-1.0237l-0.20946-0.19478 0.0583-0.3979c0.032-0.21884 0.0932-0.43409 0.13598-0.47833 0.0427-0.0442 0.0777-0.20617 0.0777-0.35984 0-0.3328 0.0705-0.34393 0.49223-0.0777 0.66208 0.41796 1.6648 2.1786 2.0951 3.6787l0.22391 0.78058-0.1124 0.13543c-0.14959 0.18025-0.17511 1.0508-0.0356 1.215 0.19046 0.22419 0.22137 0.73043 0.0539 0.88202l-0.14862 0.1345 0.0377 0.48659c0.0207 0.26762 0.0715 0.52279 0.11278 0.56702 0.0413 0.0442 0.0751 0.14476 0.0751 0.22337 0 0.26043-0.42891 1.6282-0.68215 2.1753-0.13706 0.29613-0.2492 0.55414-0.2492 0.57336 0 0.0657-0.89081 1.3496-1.1424 1.6466-0.47208 0.55721-1.2703 1.2768-1.8633 1.6798-0.74887 0.50887-0.80434 0.54219-0.80434 0.48312zm-5.2131-5.09c0.17506-0.17506 0.16795-0.25539-0.0411-0.46445-0.12627-0.12627-0.25994-0.16701-0.48614-0.14817-0.37676 0.0314-0.43566 0.19786-0.18346 0.51849 0.20154 0.25621 0.50804 0.29681 0.71071 0.0941zm6.3465-4.9072c0.16163-0.16163 0.0877-0.37856-0.12907-0.37856-0.18188 0-0.28598 0.18737-0.21167 0.38101 0.0622 0.16214 0.17697 0.16132 0.34074-2e-3zm-12.479 8.4877c-0.06985-0.0567-0.18415-0.17593-0.254-0.26491l-0.127-0.16177 0.17797 0.11081c0.09788 0.0609 0.22203 0.18136 0.27589 0.2676 0.11359 0.18188 0.10152 0.18988-0.07285 0.0483zm14.6-0.85066c0.13039-0.17096 0.2542-0.31083 0.27513-0.31083 0.0588 0-0.30773 0.49528-0.41613 0.56227-0.0529 0.0327 0.0106-0.0805 0.141-0.25144zm-16.11-0.31421c-0.16909-0.25829-0.33646-0.4199-0.43488-0.4199h-0.15999l0.0303-0.6029 0.08467 0.13781c0.04657 0.0758 0.24771 0.38814 0.44698 0.69409 0.19927 0.30596 0.35005 0.56855 0.33506 0.58354-0.01499 0.015-0.15095-0.1617-0.30214-0.39264zm16.412-0.0946c-9.6e-4 -0.12358 0.45538-0.92366 0.58274-1.0217l0.1365-0.10506-0.14816 0.17455c-0.0815 0.096-0.14936 0.20964-0.15082 0.25254-3e-3 0.0901-0.41961 0.78356-0.42026 0.69966zm-9.5291-0.41562c-0.0307-0.0497-0.0355-0.11063-0.0106-0.13548 0.0606-0.0607 0.22578 0.0462 0.22578 0.14611 0 0.1082-0.14617 0.10098-0.21515-0.0106zm10.291-0.95666c0-0.10067 0.24289-0.6464 0.2877-0.6464 0.0233 0-0.0169 0.14288-0.0892 0.3175-0.13585 0.32781-0.19845 0.43156-0.19845 0.3289zm-18.191-0.4559-0.09963-0.23284 0.12838 0.16436c0.07061 0.0904 0.12838 0.19517 0.12838 0.23283 0 0.12869-0.05743 0.0686-0.15712-0.16435zm-0.2564-0.62808c-0.0054-0.0777-0.03175-0.21104-0.05855-0.29634l-0.04873-0.1551 0.09676 0.15083c0.05322 0.083 0.07956 0.21631 0.05855 0.29634l-0.03821 0.14551zm18.973-0.2821c0-0.0931 0.0305-0.26459 0.0678-0.38101l0.0678-0.21167v0.16934c0 0.0931-0.0305 0.26459-0.0678 0.38101l-0.0678 0.21167zm-19.139-0.38101c0-0.11642 0.01922-0.16404 0.0427-0.10583 0.02349 0.0582 0.02349 0.15346 0 0.21167-0.02349 0.0582-0.0427 0.0106-0.0427-0.10584zm6.0466-3.4324 0.0562-0.29973-0.15429-0.17048-0.15428-0.17048-0.31788 0.0537c-0.17483 0.0295-0.39569 0.029-0.49078-1e-3l-0.17291-0.0549v-1.8701l0.58353 0.1094 0.0892-0.16675c0.2356-0.44022-0.0245-0.7555-0.48949-0.59339-0.14123 0.0492-0.31732 0.18191-0.39132 0.29484-0.18132 0.27674-0.23746 0.26109-0.45559-0.12702-0.19794-0.35219-0.52069-0.49514-0.86859-0.38472-0.09973 0.0317-0.27074 0.01-0.38002-0.0488l-0.1987-0.10634-0.12989 0.1078c-0.07144 0.0593-0.12989 0.19614-0.12989 0.30411 0 0.1829-0.13538 0.35315-0.21639 0.27213-0.08948-0.0895 0.28407-0.80292 0.54616-1.0431 0.19822-0.18166 0.27366-0.31198 0.23656-0.40866-0.12296-0.32043-0.31304-0.24325-0.93973 0.38159-0.34385 0.34283-0.76493 0.75668-0.93574 0.91967l-0.31056 0.29634 0.0883-0.23342c0.31307-0.82759 1.1606-2.0549 1.9785-2.8652 0.82004-0.81237 1.8177-1.495 2.852-1.9514 0.8003-0.35316 2.2109-0.74975 2.6667-0.74975 0.14925 0 0.29833-0.027 0.33127-0.0599 0.0329-0.0329 0.38654-0.0486 0.78577-0.0348 0.50733 0.0175 0.70871-3e-3 0.66889-0.0671-0.0765-0.12382 8e-3 -0.11607 0.27863 0.0255 0.1236 0.0647 0.49582 0.15896 0.82715 0.20945 0.71619 0.10911 1.9747 0.48949 2.1382 0.64622 0.20196 0.1937 0.0423 0.2857-0.34486 0.19871-0.19636-0.0441-0.39949-0.11547-0.45141-0.15856-0.0995-0.0826-1.2688-0.15474-1.3307-0.0821-0.0199 0.0233-0.0136 0.36619 0.0138 0.76201l0.0499 0.71968 0.21081 0.0847c0.56249 0.22591 1.3979 0.71366 1.3979 0.81616 0 0.0855-0.10975 0.10815-0.42536 0.0879l-0.42536-0.0273-0.45507 0.35796-0.72624-0.35361-0.79609 0.1072-0.095 0.28778c-0.0522 0.15828-0.13105 0.31008-0.17513 0.33732-0.10927 0.0675-0.66318-0.12266-0.92927-0.31907-0.12288-0.0907-0.42931-0.18237-0.70474-0.21079l-0.48732-0.0503-0.13224-0.20182c-0.15517-0.23682-0.16271-0.22769 0.2717-0.32913 0.38632-0.0902 0.48987-0.33913 0.24354-0.58546l-0.14647-0.14648-0.42801 0.0568c-0.49118 0.0652-0.54274 0.0949-0.40426 0.23341 0.14498 0.14498 0.12301 0.2492-0.048 0.22753-0.0815-0.0103-0.25344 0.0106-0.3821 0.0465-0.28402 0.0792-0.44133-0.0326-0.46604-0.33115-0.01-0.12034-0.0955-0.37059-0.19019-0.5561l-0.17208-0.33731-0.40023 0.20353c-0.47082 0.23944-1.3739 1.0742-1.3739 1.2699 0 0.17254 0.07242 0.1697 0.84667-0.0332 0.34926-0.0915 0.64621-0.16709 0.65989-0.16789 0.0137-8e-4 0.0147 0.0462 2e-3 0.10439-0.0125 0.0582 0.0525 0.26534 0.14445 0.46029l0.16715 0.35445 0.25331 0.0266c0.35822 0.0376 0.39792 0.30695 0.0553 0.37547-0.13995 0.028-0.33756 0.13936-0.43915 0.24749l-0.1847 0.19661 0.0463 0.32317c0.0763 0.53271 0.19768 1.1278 0.23445 1.1495 0.019 0.0112 0.14339 0.0775 0.27653 0.14736 0.15191 0.0797 0.34705 0.3289 0.52399 0.66914 0.15506 0.29817 0.33188 0.5744 0.39295 0.61384l0.11102 0.0717-0.127 0.0833c-0.0699 0.0458-0.1555 0.0934-0.19033 0.10583-0.0348 0.0124-0.0755 0.22754-0.0904 0.47809l-0.0271 0.45554-0.29056 0.15475c-0.44168 0.23524-0.51925 0.21167-0.45367-0.13787zm-5.125-0.69513c4e-3 -0.25499 0.11417-0.83634 0.19649-1.0372 0.02863-0.0699 0.01631-0.18324-0.02738-0.25197l-0.07944-0.12497-0.53409 0.39487 0.06105-0.28414c0.03358-0.15627 0.09884-0.35614 0.14502-0.44416l0.08397-0.16002 0.16833 0.26586c0.09258 0.14622 0.23641 0.26586 0.31961 0.26586 0.16251 0 0.42476 0.3361 0.42476 0.54438 0 0.0699-0.07979 0.1697-0.1773 0.22189-0.09752 0.0522-0.2517 0.26308-0.34263 0.46866-0.19172 0.4334-0.24351 0.46402-0.23839 0.14092zm-0.92708-0.83271c0.12736-0.48698 0.16813-0.5457 0.11258-0.16214-0.02698 0.18627-0.08285 0.37353-0.12416 0.41614-0.04131 0.0426-0.0361-0.0717 0.01158-0.254zm19.174-0.0822c-0.0319-0.16992-0.041-0.32587-0.0203-0.34657s0.0637 0.10139 0.0956 0.27131c0.0319 0.16991 0.041 0.32587 0.0203 0.34657s-0.0637-0.1014-0.0956-0.27131zm-18.829-0.9733c0.04953-0.14208 0.10576-0.24262 0.12497-0.22342 0.04193 0.0419-0.11784 0.48174-0.17499 0.48174-0.02201 0 4.98e-4 -0.11624 0.05003-0.25832zm18.567 0.16802c-0.0307-0.0497-0.0376-0.10846-0.0155-0.13065 0.0222-0.0222 0.0629 0.0184 0.0905 0.0903 0.0572 0.14919 8e-3 0.17544-0.075 0.0403zm-18.411-0.59031c3.07e-4 -0.068 0.07626-0.23804 0.16878-0.37774 0.2157-0.32569 0.2157-0.25374 0 0.16934-0.09314 0.18268-0.16908 0.27646-0.16878 0.2084zm17.948-0.48357c-0.49089-0.89616-0.71357-1.2552-0.81657-1.3166-0.0625-0.0372-0.11364-0.14201-0.11364-0.23283 0-0.0908-0.0571-0.16513-0.127-0.16513s-0.127-0.0362-0.127-0.0804-0.12383-0.20373-0.27517-0.35449c-0.15135-0.15077-0.181-0.20033-0.0659-0.11013 0.32379 0.25372 0.67973 0.6098 0.67973 0.67999 0 0.0348 0.0533 0.12349 0.11849 0.19701 0.18324 0.20672 1.0118 1.7 0.9433 1.7-0.0233 0-0.12059-0.14288-0.21625-0.3175zm-17.539-0.33311c0.05419-0.10172 0.09853-0.26364 0.09853-0.35984s0.05339-0.1749 0.11864-0.1749c0.06525 0 0.193-0.12603 0.28388-0.28006 0.18304-0.31024 0.3602-0.51705 1.2908-1.5069 0.34926-0.37148 0.64771-0.71194 0.66323-0.75657 0.01552-0.0446 0.08354-0.0812 0.15115-0.0812 0.13792 0 0.47755-0.19739 0.79175-0.46014l0.20911-0.17487-0.12444 0.16218c-0.06844 0.0892-0.33399 0.29534-0.59012 0.45809-0.49829 0.31663-1.6934 1.4988-1.6934 1.6751 0 0.0584-0.06942 0.12826-0.15426 0.15519-0.08485 0.0269-0.24072 0.20279-0.3464 0.39082-0.10567 0.18802-0.26486 0.38727-0.35374 0.44278-0.08889 0.0555-0.16161 0.18235-0.16161 0.28187 0 0.0995-0.06339 0.23322-0.14086 0.29713l-0.14086 0.11621zm15.326-2.593c-0.26322-0.24304-0.84343-0.6676-1.2894-0.94347-0.44594-0.27587-0.79837-0.514-0.78319-0.52917 0.0703-0.0703 1.6539 1.0006 2.1168 1.4316 0.28542 0.2657 0.4999 0.48307 0.47662 0.48303-0.0233-4e-5 -0.25769-0.19892-0.52091-0.44196zm-11.544-1.3285c0.0843-0.0931 0.22604-0.16933 0.31502-0.16933 0.089 0 0.245-0.0402 0.34672-0.0893l0.18494-0.0893-0.16435 0.13167c-0.0904 0.0724-0.25352 0.13168-0.3625 0.13168s-0.22008 0.0571-0.24688 0.127-0.0887 0.127-0.13747 0.127c-0.0488 0-0.01977-0.0762 0.06452-0.16934zm8.3821-0.54849c-0.5602-0.2639-0.45431-0.26716 0.17612-5e-3 0.27567 0.11445 0.44407 0.20737 0.37422 0.20648-0.0699-8.9e-4 -0.3175-0.0914-0.55034-0.20105zm-7.105-0.0745c0.0617-0.16072 0.25154-0.18377 0.33964-0.0412 0.0382 0.0618 0.0231 0.0747-0.0411 0.035-0.0558-0.0345-0.15781-0.0159-0.22669 0.0412l-0.12523 0.10394zm0.71256-0.15239c0.54457-0.14837 0.72321-0.16414 0.381-0.0336-0.18627 0.071-0.41487 0.12583-0.50801 0.12177-0.0961-4e-3 -0.0413-0.0423 0.12701-0.0881zm5.4611-0.0713-0.25401-0.0646 0.21168-4e-3c0.11641-2e-3 0.28787 0.0287 0.381 0.0687 0.20877 0.0897 0.0139 0.0897-0.33867 0zm-2.814-0.14542c0.1287-0.0195 0.3192-0.0189 0.42334 1e-3 0.10414 0.0201-1e-3 0.036-0.234 0.0354-0.23284-6.4e-4 -0.31804-0.0171-0.18934-0.0365z" fill="#e9e9e9"/><path d="m109.49 157.36c0-0.0313 0.0627-0.12613 0.13936-0.21083l0.13936-0.15399-0.32986-0.13556c-0.49029-0.20148-0.96553-0.43857-1.3459-0.67143-0.18627-0.11403-0.39583-0.23363-0.46568-0.26577-0.0698-0.0321-0.21873-0.12884-0.33085-0.21488-0.11211-0.086-0.40669-0.2154-0.65461-0.28748-0.51463-0.1496-0.59378-0.23149-0.47156-0.48785 0.0478-0.10033 0.10829-0.2491 0.13433-0.33059 0.026-0.0815 0.11713-0.14817 0.20241-0.14817 0.27445 0 0.34667-0.16177 0.29733-0.66599-0.0542-0.55361-0.13365-0.68839-0.36958-0.62669-0.10731 0.0281-0.24676-0.0273-0.37706-0.14971l-0.20676-0.19425-0.2165 0.0986c-0.29148 0.13281-1.0833 0.12296-1.6208-0.0202l-0.43863-0.11678-0.52087 0.25607c-0.28647 0.14083-0.54024 0.30657-0.56393 0.3683-0.0237 0.0617 3e-3 0.25168 0.0592 0.42212l0.10228 0.30989-0.11573 0.0733c-0.0636 0.0403-0.23343 0.0739-0.3773 0.0746l-0.26158 1e-3 -0.0986-0.21644c-0.10002-0.21953-0.26723-0.21341-0.26723 0.01 0 0.16425-0.2061 0.15474-0.34784-0.016l-0.11457-0.13805-1.3042 0.1006-0.42906-0.38576c-0.23598-0.21217-0.42906-0.45378-0.42906-0.53691 0-0.0831-0.05715-0.28793-0.127-0.45511-0.18866-0.45154-0.16662-0.52671 0.14817-0.50521 0.15134 0.0103 0.3609 0.044 0.46567 0.0748l0.1905 0.0561v-0.18036c0-0.0992-0.03299-0.24652-0.07332-0.32738-0.19626-0.39356-0.24388-0.70181-0.1653-1.0702l0.08162-0.38271 0.48475-0.33088c0.26662-0.18199 0.60291-0.39199 0.74732-0.46667l0.26257-0.13578 0.24357 0.12151c0.13396 0.0668 0.34787 0.23038 0.47535 0.36344l0.23179 0.24194-0.1328 0.26621-0.13281 0.26622 0.0905 0.16901c0.0498 0.093 0.22036 0.26809 0.37912 0.38919l0.28866 0.22017 0.29571-0.0555c0.37055-0.0695 0.61141-0.3284 0.68392-0.73511 0.0699-0.39222 0.24557-0.57423 0.55414-0.57423 0.13122 0 0.32449-0.0696 0.42949-0.15459l0.1909-0.15459-0.0578-0.30812c-0.0318-0.16946-0.0967-0.33213-0.14415-0.36148-0.0475-0.0293-0.33198 0.0131-0.63221 0.0944l-0.54585 0.14776-0.16887-0.15282c-0.18267-0.16531-0.222-0.54642-0.0832-0.80584 0.0484-0.0905 0.22328-0.18567 0.40217-0.21888 0.17406-0.0323 0.4403-0.15278 0.59165-0.2677l0.27517-0.20894v-0.36596c0-0.41568-0.0924-0.50534-0.48579-0.47145-0.35972 0.031-0.4328-0.15305-0.22445-0.56532 0.2575-0.50953 0.45774-0.69387 0.75374-0.69387h0.26799l0.0932 0.20464c0.0513 0.11256 0.18596 0.25544 0.29927 0.31751 0.75377 0.4129 0.99992 0.51383 1.426 0.58469l0.47894 0.0797 0.43113-0.19108c0.45257-0.20058 0.52038-0.33736 0.30705-0.6194-0.15839-0.20942-0.16487-0.46069-0.0119-0.46069 0.0648 0 0.14131-0.0936 0.17002-0.20796l0.0522-0.20797 0.31683-0.0573c0.17425-0.0316 0.42499-0.11215 0.55719-0.17912l0.24038-0.12176 0.30997 0.14634c0.17048 0.0805 0.35764 0.21355 0.41591 0.2957 0.0583 0.0822 0.22756 0.17609 0.37621 0.20873 0.14864 0.0326 0.32277 0.11187 0.38694 0.17604 0.17389 0.17389 0.39124 0.14198 0.64693-0.095 0.25764-0.23877 0.53892-0.27613 0.6136-0.0815 0.0275 0.0716-0.0104 0.19682-0.0841 0.27829-0.20177 0.22296-0.0865 0.47679 0.29254 0.64401l0.33566 0.14809 0.12367-0.10263c0.16783-0.13928 0.15256-0.33649-0.0457-0.58991-0.0911-0.11642-0.16642-0.29891-0.16745-0.40554-3e-3 -0.27214-0.28129-0.78523-0.55471-1.0214l-0.2307-0.19929 0.0502-0.42352c0.0276-0.23293 0.0912-0.47298 0.1414-0.53345 0.0511-0.0616 0.066-0.21064 0.0338-0.3388-0.0388-0.15441-0.0193-0.25302 0.0598-0.30314 0.17444-0.11047 0.2646-0.0916 0.4983 0.10439l0.21167 0.1775-0.22986-0.13705c-0.33157-0.19769-0.40515-0.17184-0.40515 0.14236 0 0.15367-0.035 0.3156-0.0777 0.35984-0.0427 0.0442-0.10393 0.25949-0.13598 0.47833l-0.0583 0.3979 0.20946 0.19478c0.30957 0.28786 0.56982 0.75513 0.57018 1.0237 1.8e-4 0.12995 0.0814 0.34596 0.18054 0.48003 0.1283 0.17352 0.16417 0.30777 0.12448 0.46587-0.0759 0.30223-0.23161 0.34144-0.67844 0.1708l-0.3791-0.14478-0.1138-0.51846 0.14549-0.10639c0.1533-0.11209 0.10858-0.287-0.0734-0.287-0.059 0-0.19674 0.0953-0.3061 0.21167-0.10937 0.11642-0.25889 0.2115-0.33227 0.21128-0.23234-6.8e-4 -1.1334-0.40344-1.2712-0.56816-0.0727-0.087-0.22879-0.20625-0.34676-0.26499l-0.2145-0.10679-0.25117 0.13097c-0.13815 0.072-0.31474 0.13121-0.39242 0.1315-0.31315 1e-3 -0.4091 0.10104-0.4091 0.42586 0 0.17741-0.0405 0.33605-0.09 0.35254-0.0612 0.0204-0.0636 0.0993-7e-3 0.24696 0.10926 0.28738 0.0555 0.34862-0.50235 0.57206l-0.47276 0.18936-0.50093-0.0808c-0.58823-0.0948-1.686-0.68663-1.7536-0.9454-0.0465-0.17766-0.34431-0.22584-0.55833-0.0903-0.13877 0.0879-0.52459 0.85865-0.47222 0.94339 0.0199 0.0321 0.15688 0.0443 0.30453 0.0271 0.3885-0.0452 0.49705 0.0882 0.49705 0.61079v0.45233l-0.18876 0.10102c-0.10381 0.0556-0.2353 0.14756-0.29218 0.20444-0.0569 0.0569-0.24809 0.13057-0.4249 0.16374-0.37323 0.07-0.44578 0.15571-0.44756 0.52863-2e-3 0.37342 0.1869 0.45589 0.71839 0.31398 0.62198-0.16606 0.76341-0.15069 0.87542 0.0951 0.22943 0.50354-0.0232 0.93301-0.57909 0.98456l-0.29633 0.0275-0.14756 0.46567c-0.16671 0.5261-0.36757 0.73185-0.79221 0.81151l-0.29267 0.0549-0.34662-0.24021c-0.43932-0.30444-0.54644-0.52707-0.42341-0.87999l0.0931-0.26698-0.17666-0.23895c-0.24369-0.32961-0.59016-0.38285-1.0309-0.15842-0.19494 0.0993-0.4024 0.2486-0.46102 0.33185-0.05862 0.0832-0.19042 0.16349-0.29289 0.17832l-0.18631 0.027-0.07222 0.33867c-0.08729 0.40932-0.02006 0.91393 0.15797 1.1856l0.13107 0.20004-0.09265 0.17312-0.09265 0.17313-0.75808-0.104v0.21818c0 0.12 0.0381 0.24173 0.08467 0.27051 0.04657 0.0288 0.08467 0.13031 0.08467 0.22561 0 0.19482 0.34113 0.63635 0.64974 0.84097l0.20396 0.13523 0.63064-0.0405c0.43164-0.0277 0.67068-7e-3 0.75751 0.0648l0.12686 0.10529 0.0352-0.11537c0.0194-0.0635 0.0584-0.18634 0.0867-0.27308l0.0515-0.1577 0.126 0.10457c0.0693 0.0575 0.126 0.15115 0.126 0.20808 0 0.24202 0.53306 0.49982 0.69619 0.33669 0.0259-0.0259 7e-3 -0.17792-0.0422-0.33786-0.10882-0.35458 0.0244-0.71575 0.26411-0.71575 0.0879 0 0.2506-0.071 0.36165-0.15769 0.3138-0.24506 0.5072-0.27281 0.95623-0.13718 0.49798 0.15041 1.3129 0.16373 1.6144 0.0264l0.2176-0.0991 0.23671 0.175c0.15461 0.11431 0.3141 0.16022 0.45982 0.13236l0.22311-0.0427 0.0411 0.19963c0.19301 0.93696 0.12784 1.3426-0.21567 1.3426-0.0889 0-0.18226 0.0667-0.20748 0.14817-0.0252 0.0815-0.0804 0.21308-0.12262 0.29242-0.0901 0.16943-0.0833 0.17461 0.53146 0.40464 0.26047 0.0975 0.51982 0.2329 0.57633 0.30099 0.0565 0.0681 0.15678 0.12381 0.22281 0.12381 0.066 0 0.23283 0.0762 0.37064 0.16933 0.13782 0.0931 0.35535 0.23886 0.48342 0.32383 0.12806 0.085 0.44239 0.22581 0.69851 0.31298 0.25612 0.0872 0.52034 0.20703 0.58715 0.26635l0.12148 0.10786-0.11462 0.21417c-0.10594 0.19796-0.25534 0.29001-0.25534 0.15734zm0.50801-0.15484c0.15779-0.11642 0.30807-0.21148 0.33395-0.21125 0.0799 7.1e-4 -0.45591 0.41664-0.5409 0.41988-0.044 2e-3 0.0491-0.0922 0.20695-0.20863zm0.59267 0.0104c0-0.0176 0.0667-0.0843 0.14817-0.14817l0.14817-0.1162-0.1162 0.14816c-0.11061 0.14104-0.18014 0.18589-0.18014 0.11621zm-0.16933-0.24547c0-0.0162 0.12383-0.12004 0.27517-0.23084 0.17028-0.12465 0.22941-0.14509 0.15513-0.0536-0.11275 0.13884-0.4303 0.34877-0.4303 0.28447zm0.93135-0.34721c0-0.0176 0.0667-0.0843 0.14817-0.14817l0.14817-0.1162-0.11621 0.14817c-0.1106 0.14103-0.18013 0.18589-0.18013 0.1162zm0.11735-0.49884c0.18096-0.16107 0.46079-0.44091 0.62186-0.62187l0.29284-0.32901-0.26599 0.35586c-0.1463 0.19573-0.42614 0.47557-0.62186 0.62187l-0.35587 0.26599zm-13.291 2e-3 -0.16129-0.1905 0.1905 0.16129c0.17903 0.15157 0.22905 0.21971 0.16129 0.21971-0.01607 0-0.10179-0.0857-0.1905-0.1905zm0.16094-0.10316c-0.13066-0.11494-0.18993-0.2102-0.13172-0.21167 0.05821-1e-3 0.10584-0.0448 0.10584-0.0964 0-0.0515-0.05605-0.0722-0.12455-0.0459-0.13176 0.0506-0.32699-0.10464-0.47166-0.37495-0.15921-0.2975 0.06725-0.1758 0.55009 0.2956 0.4435 0.43299 0.57045 0.64235 0.38951 0.64235-0.04397 0-0.18685-0.094-0.31751-0.209zm13.352 0.1825c0-0.0146 0.12383-0.1384 0.27517-0.27517l0.27517-0.24868-0.24868 0.27518c-0.2318 0.25649-0.30166 0.31408-0.30166 0.24867zm0.80435-0.73552c0.0843-0.0931 0.17229-0.16933 0.19558-0.16933 0.0233 0-0.0266 0.0762-0.11091 0.16933-0.0843 0.0931-0.1723 0.16934-0.19559 0.16934-0.0233 0 0.0266-0.0762 0.11092-0.16934zm-15.204-0.14817-0.20526-0.23283 0.23284 0.20526c0.12806 0.11289 0.23284 0.21767 0.23284 0.23284 0 0.0664-0.06856 0.0124-0.26041-0.20527zm15.416-0.1378c0-0.0176 0.0667-0.0843 0.14817-0.14817l0.14817-0.1162-0.11621 0.14817c-0.1106 0.14104-0.18013 0.18589-0.18013 0.1162zm-15.759-0.3702-0.1162-0.14817 0.14817 0.1162c0.08149 0.0639 0.14817 0.13059 0.14817 0.14817 0 0.0697-0.06953 0.0248-0.18014-0.1162zm15.759-0.0847c0.11079-0.15135 0.21466-0.27517 0.23083-0.27517 0.0643 0-0.14563 0.31755-0.28447 0.4303-0.0915 0.0743-0.071 0.0151 0.0536-0.15513zm0.25426 0.1162c0-0.0176 0.0667-0.0843 0.14817-0.14817l0.14817-0.1162-0.1162 0.14817c-0.11061 0.14103-0.18014 0.18589-0.18014 0.1162zm-9.322-0.56918c-0.13194-0.13194-0.15318-0.20242-0.0823-0.27326 0.13066-0.13067 0.37869 0.0305 0.41419 0.26921 0.0344 0.23086-0.10336 0.23255-0.33186 4e-3zm0.26247-0.0712c0-0.0999-0.16513-0.20676-0.22578-0.14611-0.0606 0.0607 0.0462 0.22578 0.14611 0.22578 0.0438 0 0.0797-0.0358 0.0797-0.0797zm9.3223-0.24815c0.065-0.11045 0.16522-0.28191 0.22275-0.38101l0.10458-0.18018 2e-3 0.32258 0.1905-0.16069 0.1905-0.16068-0.17972 0.21106c-0.0988 0.11609-0.20062 0.26822-0.22615 0.33807l-0.0464 0.127-0.014-0.23792-0.18166 0.1613-0.18165 0.16129zm0.49916-1.0219c0-0.0438 0.0377-0.10295 0.0837-0.1314 0.048-0.0297 0.0622 4e-3 0.0333 0.0797-0.0563 0.14668-0.11698 0.17352-0.11698 0.0517zm-9.9879-0.74019c-0.2522-0.32063-0.1933-0.4871 0.18346-0.51849 0.2262-0.0188 0.35987 0.0219 0.48614 0.14817 0.20906 0.20906 0.21617 0.28939 0.0411 0.46445-0.20267 0.20268-0.50917 0.16208-0.71071-0.0941zm0.65839-0.0846c0.0305-0.21424-0.23043-0.39057-0.51751-0.34972-0.1325 0.0188-0.17835 0.0753-0.15911 0.19582 0.0611 0.38291 0.62574 0.51134 0.67662 0.1539zm9.8026-0.40808c0.16369-0.65383 0.27432-1.0046 0.28031-0.88884 8e-3 0.16441-0.21817 1.017-0.28929 1.0881-0.03 0.03-0.026-0.0597 9e-3 -0.19926zm0.30328-0.16916c-1e-3 -0.0931 0.0302-0.24554 0.0703-0.33868 0.0927-0.21575 0.0927 7e-3 0 0.29634l-0.0678 0.21167zm-0.22235-0.99485c-0.0183-0.0582-0.0495-0.30509-0.0694-0.54862l-0.0361-0.44278 0.15025-0.13597 0.15024-0.13597-0.0473-0.31026c-0.026-0.17065-0.0958-0.36742-0.15518-0.43727-0.13876-0.16335-0.11402-1.0597 0.0333-1.2046l0.10952-0.10777-0.0434 0.21167c-0.13359 0.65084-0.13838 0.85236-0.0246 1.035 0.20353 0.32662 0.24444 0.75105 0.089 0.92285l-0.13772 0.15218 0.0353 0.5537c0.0339 0.53235 0.0171 0.67279-0.0537 0.44788zm-12.96-2.4227c0.0409-0.24188 0.0203-0.36214-0.0791-0.46147l-0.13433-0.13433-0.40315 0.0477c-0.28698 0.034-0.43106 0.0141-0.50001-0.069-0.0551-0.0664-0.10603-0.48787-0.11813-0.97758-0.0238-0.96429 0.0523-1.17 0.38576-1.0432 0.23186 0.0882 0.3852-0.0323 0.3852-0.30262 0-0.38712-0.55625-0.28041-0.91489 0.17552-0.09231 0.11735-0.20045 0.21199-0.24031 0.2103-0.03986-2e-3 -0.14868-0.16362-0.24182-0.35984l-0.16934-0.35677-0.48646-0.0105c-0.26755-6e-3 -0.53707-0.0525-0.59892-0.10382-0.14768-0.12257-0.31164 0.0347-0.31164 0.29895 0 0.13633-0.06341 0.20904-0.21561 0.24724-0.29982 0.0752-0.31532 0.0284-0.12248-0.37077 0.09281-0.19211 0.16875-0.38834 0.16875-0.43609 0-0.0477 0.0968-0.15023 0.21511-0.22775 0.2782-0.18228 0.38726-0.38844 0.28826-0.54486l-0.07749-0.12244-0.28026 0.29633c-0.15414 0.16299-0.5261 0.52041-0.82658 0.79427-0.30047 0.27385-0.59734 0.57077-0.65971 0.65981l-0.1134 0.1619 0.13631 0.20803c0.07497 0.11442 0.19064 0.20803 0.25705 0.20803 0.06641 0 0.22186 0.13257 0.34544 0.2946l0.2247 0.2946-0.3474 0.39467c-0.23373 0.26552-0.3474 0.47387-0.3474 0.63674 0 0.16049-0.04351 0.24209-0.1291 0.24209-0.18666 0-0.29717-0.35957-0.21248-0.69131 0.22569-0.88401 0.18105-1.0955-0.15937-0.75511-0.08925 0.0893-0.18652 0.13804-0.21614 0.10842-0.02963-0.0296-0.03322 2e-3 -8e-3 0.0706 0.02524 0.0684-0.0083 0.29587-0.07453 0.50542l-0.12042 0.38101-0.0057-0.3472c-0.0063-0.38384 0.15595-0.94134 0.2383-0.81899 0.02881 0.0428 0.17317-5e-3 0.32082-0.10587l0.26844-0.18368-0.15332-0.23373-0.15332-0.23372-0.09138 0.15725c-0.05026 0.0865-0.09094 0.11915-0.09041 0.0726 5.36e-4 -0.0466 0.07792-0.21802 0.17196-0.38101 0.09404-0.16298 0.14726-0.22014 0.11826-0.127-0.05762 0.18506 0.0688 0.0741 1.1929-1.0467 0.62669-0.62484 0.81677-0.70202 0.93973-0.38159 0.0371 0.0967-0.03834 0.227-0.23656 0.40866-0.26209 0.24018-0.63564 0.95362-0.54616 1.0431 0.08102 0.081 0.21639-0.0892 0.21639-0.27213 0-0.10797 0.05845-0.24482 0.12989-0.30411l0.12989-0.1078 0.1987 0.10634c0.10928 0.0585 0.28029 0.0804 0.38002 0.0488 0.3479-0.11042 0.67065 0.0325 0.86859 0.38472 0.21813 0.38811 0.27426 0.40376 0.45559 0.12702 0.074-0.11293 0.25009-0.24561 0.39132-0.29484 0.46502-0.16211 0.72509 0.15317 0.48949 0.59339l-0.0892 0.16675-0.29177-0.0547-0.29176-0.0547v1.8701l0.17291 0.0549c0.0951 0.0302 0.31595 0.0307 0.49078 1e-3l0.31788-0.0537 0.15428 0.17048 0.15429 0.17048-0.0562 0.29973c-0.0656 0.34954 0.012 0.37311 0.45367 0.13787l0.29056-0.15475 0.0271-0.45554c0.0149-0.25055 0.0556-0.46569 0.0904-0.47809s0.12048-0.06 0.19033-0.10583l0.127-0.0833-0.11102-0.0717c-0.0611-0.0394-0.23789-0.31567-0.39295-0.61384-0.17694-0.34024-0.37208-0.58944-0.52399-0.66914-0.13314-0.0699-0.25757-0.13617-0.27653-0.14736-0.0368-0.0217-0.15814-0.61679-0.23445-1.1495l-0.0463-0.32317 0.1847-0.19661c0.10159-0.10813 0.2992-0.2195 0.43915-0.24749 0.34259-0.0685 0.30289-0.33792-0.0553-0.37547l-0.25331-0.0266-0.16715-0.35445c-0.0919-0.19495-0.15693-0.40208-0.14445-0.46029 0.0125-0.0582 0.0115-0.10519-2e-3 -0.10439-0.0137 8e-4 -0.31063 0.0764-0.65989 0.16789-0.77426 0.20293-0.84668 0.20577-0.84668 0.0332 0-0.19576 0.90309-1.0305 1.3739-1.2699l0.40023-0.20353 0.17208 0.33731c0.0947 0.18551 0.18023 0.43576 0.19019 0.5561 0.0247 0.29859 0.18202 0.41037 0.46604 0.33115 0.12866-0.0359 0.30061-0.0568 0.3821-0.0465 0.17099 0.0217 0.19296-0.0825 0.048-0.22753-0.13848-0.13848-0.0869-0.16825 0.40426-0.23341l0.42801-0.0568 0.14647 0.14648c0.24633 0.24633 0.14278 0.49525-0.24354 0.58546-0.43441 0.10144-0.42687 0.0923-0.2717 0.32913l0.13224 0.20182 0.48732 0.0503c0.27543 0.0284 0.58186 0.12008 0.70474 0.21079 0.26609 0.19641 0.82 0.3866 0.92927 0.31907 0.0441-0.0272 0.12289-0.17904 0.17513-0.33732l0.095-0.28778 0.79609-0.1072 0.36312 0.1768 0.36312 0.17681 0.22753-0.17898 0.22754-0.17898 0.42536 0.0273c0.31561 0.0202 0.42536-2e-3 0.42536-0.0879 0-0.1025-0.83539-0.59025-1.3979-0.81616l-0.21081-0.0847-0.0499-0.71968c-0.0275-0.39582-0.0337-0.73873-0.0138-0.76201 0.062-0.0726 1.2312-4.6e-4 1.3307 0.0821 0.0519 0.0431 0.25505 0.11444 0.45141 0.15856 0.39744 0.0893 0.52281 7e-3 0.34213-0.22323l-0.11313-0.14446 0.14817 0.11621c0.18263 0.14322 0.19502 0.43414 0.0185 0.43414-0.0713 0-0.36341-0.0788-0.6491-0.17498-0.29648-0.0999-0.6077-0.15283-0.7251-0.12336-0.11313 0.0284-0.25437 0.0112-0.31386-0.0382-0.0595-0.0494-0.17167-0.0654-0.24928-0.0356l-0.14111 0.0541 0.0245 0.64289 0.0245 0.64288 0.23284 0.10877c0.12806 0.0598 0.33762 0.16371 0.46568 0.23084 0.12806 0.0671 0.41381 0.20518 0.63501 0.30676 0.43902 0.20163 0.4695 0.25377 0.26685 0.45642-0.0964 0.0964-0.21681 0.12004-0.41828 0.0823-0.20341-0.0382-0.38773-7.5e-4 -0.65575 0.13311l-0.37282 0.18619-0.3731-0.18099c-0.27373-0.13278-0.45734-0.16691-0.68938-0.12815l-0.31627 0.0528-0.0993 0.33144c-0.0647 0.21581-0.1493 0.33144-0.2426 0.33144-0.21977 0-0.69471-0.18079-0.93253-0.35497-0.11749-0.0861-0.4223-0.17973-0.67735-0.20817-0.49693-0.0554-0.84473-0.28281-0.84473-0.5523 0-0.10503 0.0627-0.15458 0.19549-0.15458 0.48594 0 0.6681-0.52389 0.20084-0.57763-0.29311-0.0337-0.48208 0.11219-0.45736 0.35311l0.0187 0.18219-0.25401-0.0212c-0.1397-0.0117-0.33843 0.0227-0.44162 0.0763-0.13615 0.0707-0.21822 0.072-0.29918 5e-3 -0.0706-0.0586-0.15712-0.064-0.23572-0.0147-0.0683 0.0428-0.19084 0.0571-0.27233 0.0318-0.0815-0.0254-0.14817-0.0179-0.14817 0.0165 0 0.19412 0.31655 0.70674 0.43758 0.70861 0.26952 4e-3 0.4091 0.10598 0.4091 0.2984 0 0.1407-0.0635 0.20904-0.23284 0.25068-0.58703 0.14433-0.73557 0.45086-0.53211 1.0981 0.045 0.14301 0.10268 0.36421 0.12829 0.49156 0.0315 0.15687 0.11536 0.24882 0.2599 0.28509 0.12196 0.0306 0.27088 0.16716 0.34769 0.3188 0.2683 0.52966 0.58177 0.97882 0.68525 0.98184 0.0582 2e-3 0.10583 0.0385 0.10583 0.0817 0 0.0926-0.21228 0.3167-0.34037 0.3594-0.0492 0.0164-0.0975 0.21831-0.10739 0.44872l-0.018 0.41891-0.28766 0.19386c-0.15821 0.10662-0.38062 0.19385-0.49425 0.19385h-0.20659zm-4.7937-0.89331c0.09093-0.20558 0.24512-0.41647 0.34263-0.46866 0.21267-0.11382 0.22453-0.27681 0.04056-0.55758-0.15365-0.2345-0.50827-0.29785-0.42296-0.0756 0.0281 0.0732 0.01588 0.19892-0.02715 0.27932-0.09271 0.17322-0.21904 1.1962-0.14773 1.1962 0.02712 0 0.12371-0.16819 0.21464-0.37376zm3.822-4.9703c0.34926-0.097 0.75884-0.19579 0.91019-0.21948l0.27517-0.0431v-0.19555c0-0.23361-0.25951-0.71598-0.3856-0.71674-0.16569-9.9e-4 -0.83964 0.48564-1.2019 0.86786-0.53027 0.55945-0.52395 0.56427 0.40217 0.30699zm10.106 5.1324c-0.0743-0.19364 0.0298-0.38101 0.21167-0.38101 0.21674 0 0.2907 0.21693 0.12907 0.37856-0.16377 0.16377-0.27852 0.16459-0.34074 2e-3zm0.30805-0.16934c0-0.0699-0.0572-0.127-0.127-0.127-0.0699 0-0.127 0.0572-0.127 0.127 0 0.0699 0.0572 0.12701 0.127 0.12701s0.127-0.0571 0.127-0.12701zm-15.395-0.29633c0.0014-0.0699 0.03299-0.22226 0.07028-0.33868l0.06779-0.21167 0.0025 0.16934c0.0014 0.0931-0.03026 0.24554-0.07028 0.33867-0.04458 0.10375-0.0718 0.12014-0.07028 0.0423zm18.92-0.17992c-0.0706-0.35292-2e-3 -0.42132 0.0741-0.0741 0.0321 0.14636 0.0408 0.28376 0.0192 0.30533-0.0216 0.0216-0.0636-0.0825-0.0933-0.23124zm0.20777-0.20815c4e-3 -0.0986 0.0241-0.11869 0.0512-0.0511 0.0244 0.0611 0.0214 0.13415-7e-3 0.16228-0.0281 0.0281-0.0481-0.0219-0.0445-0.11113zm-18.888-0.64442c0-0.0269 0.05692-0.15798 0.12648-0.29136 0.06957-0.13338 0.1255-0.18536 0.12431-0.11551-0.0012 0.0699-0.05811 0.20096-0.12648 0.29135-0.06837 0.0904-0.12431 0.14238-0.12431 0.11552zm18.645-0.15557c-0.0564-0.0904-0.1024-0.21248-0.10211-0.27132 2.8e-4 -0.0588 0.0581 3e-3 0.12851 0.13845 0.14672 0.28134 0.12731 0.37901-0.0264 0.13287zm-0.28986-0.0418c-0.0262-0.0919-0.0734-0.24335-0.1049-0.33648-0.0315-0.0931 5e-3 -0.0623 0.0804 0.0686 0.0758 0.13086 0.12297 0.28228 0.1049 0.33649-0.0181 0.0542-0.0543 0.0234-0.0804-0.0686zm-17.339-1.4277c0-0.0828 0.65673-1.0451 0.75448-1.1055 0.04288-0.0265-0.09417 0.20926-0.30455 0.52392-0.42657 0.63802-0.44994 0.66822-0.44994 0.58158zm16.53-0.26953c-0.10466-0.15966-0.17348-0.29028-0.15294-0.29028 0.0589 0 0.40963 0.51415 0.37462 0.54916-0.0173 0.0173-0.11703-0.0992-0.22168-0.25888zm-16.53-0.23758c0-0.0176 0.06668-0.0843 0.14817-0.14817l0.14817-0.1162-0.1162 0.14817c-0.11061 0.14103-0.18014 0.18588-0.18014 0.1162zm15.972-0.58188c-0.17609-0.24448-0.22415-0.33973-0.10681-0.21167 0.11735 0.12806 0.28186 0.23585 0.36559 0.23952 0.0876 4e-3 0.10761 0.0247 0.0471 0.0492-0.0765 0.0309-0.0814 0.0868-0.0182 0.20498 0.15178 0.28361 0.0427 0.17666-0.28766-0.282zm-15.219-0.23987c-0.08446-0.0535-0.08811-0.0754-0.01269-0.0763 0.05821-7.1e-4 0.10642-0.068 0.10713-0.14946l0.0013-0.14817 0.07936 0.12551 0.07936 0.12552 0.25801-0.24719c0.14191-0.13596 0.25801-0.22713 0.25801-0.20262 0 0.0245-0.14669 0.1803-0.32598 0.34619-0.22957 0.2124-0.36104 0.27941-0.44451 0.22656zm1.0245-0.92329c0.46287-0.42086 0.95005-0.80959 1.2277-0.97959 0.35678-0.21847 0.25188-0.11592-0.33867 0.33106-0.2794 0.21148-0.66041 0.50454-0.84668 0.65124l-0.33867 0.26673zm-0.33867 0.0517c0-0.0176 0.06668-0.0843 0.14817-0.14817l0.14817-0.1162-0.1162 0.14816c-0.11061 0.14104-0.18014 0.18589-0.18014 0.11621zm13.412-0.49721-0.1613-0.19051 0.19051 0.1613c0.17902 0.15157 0.22904 0.21971 0.16129 0.21971-0.0161 0-0.10179-0.0857-0.1905-0.1905zm-12.946-0.0635c0.08429-0.0931 0.1723-0.16934 0.19558-0.16934 0.02328 0-0.02663 0.0762-0.11091 0.16934-0.08429 0.0931-0.1723 0.16933-0.19558 0.16933-0.02328 0 0.02663-0.0762 0.11091-0.16933zm12.523-0.27517-0.16129-0.19051 0.19051 0.16129c0.17902 0.15158 0.22904 0.21972 0.16129 0.21972-0.0161 0-0.10179-0.0857-0.19051-0.1905zm-11.38-0.52918c0.10937-0.11642 0.2179-0.21167 0.24119-0.21167 0.02328 0-0.04715 0.0952-0.15652 0.21167-0.10937 0.11642-0.2179 0.21167-0.24119 0.21167-0.02328 0 0.04715-0.0952 0.15652-0.21167zm0.52716-7e-3c0.0804-0.0839 0.16438-0.13436 0.18665-0.11209 0.0223 0.0223-0.0435 0.0909-0.14615 0.15259l-0.18665 0.1121zm0.38161-0.21551c0.0574-0.0579 0.12575-0.0839 0.15182-0.0578 0.0261 0.0261-0.0209 0.0734-0.10442 0.10521l-0.15182 0.0578zm-0.42037-0.17309c0.0492-0.0492 0.13944-0.0728 0.20052-0.0524 0.0634 0.0211 0.025 0.0595-0.0895 0.0894-0.14083 0.0368-0.17389 0.0258-0.11106-0.037zm0.95096-0.0704c0.0698-0.0452 0.1651-0.0821 0.21167-0.0821 0.0466 0 0.0275 0.0369-0.0423 0.0821-0.0698 0.0451-0.1651 0.0821-0.21167 0.0821-0.0466 0-0.0275-0.0369 0.0423-0.0821zm7.2391-0.16934c-0.11166-0.048-0.12608-0.0744-0.0423-0.0774 0.0699-3e-3 0.18415 0.0323 0.254 0.0774 0.15477 0.10002 0.0211 0.10002-0.21167 0zm-6.3924-0.16135 0.127-0.0927-0.11362-0.0733c-0.084-0.0542-0.0583-0.0839 0.0981-0.11379 0.14392-0.0275 0.19901-7e-3 0.17202 0.063-0.0295 0.0768 0.10885 0.0687 0.53691-0.0315 0.31713-0.0742 0.59565-0.15532 0.61894-0.18017 0.0687-0.0733 0.75462-0.0594 0.70902 0.0144-0.0229 0.0371-0.16325 0.0677-0.31185 0.068-0.24297 5.4e-4 -1.3632 0.23934-1.7942 0.38249l-0.16933 0.0562zm-0.53059-0.18783c0.0574-0.0579 0.12575-0.0839 0.15182-0.0578 0.0261 0.0261-0.0209 0.0734-0.10442 0.10521l-0.15182 0.0578zm5.4519-0.0513c-0.36719-0.0862-0.50254-0.14985-0.42334-0.19906 0.0677-0.0421 0.12824-0.038 0.14465 0.01 0.0361 0.10488 0.26812 0.10764 0.26812 3e-3 0-0.0833 0.76206-0.0374 0.84212 0.0507 0.0258 0.0284-0.11503 0.0268-0.31295-4e-3 -0.4447-0.0681-0.47428 0.0543-0.0423 0.17526 0.4787 0.13403 0.13881 0.10818-0.47627-0.0362zm-4.4292-0.16532c0.0611-0.0245 0.13415-0.0214 0.16228 7e-3 0.0281 0.0281-0.0219 0.0481-0.11112 0.0445-0.0986-4e-3 -0.1187-0.0241-0.0512-0.0512zm3.4449-0.0268c-0.0619-0.10014 0.0209-0.10014 0.254 0l0.16934 0.0728-0.18551 6e-3c-0.10203 3e-3 -0.20905-0.0322-0.23783-0.0787zm-3.1063-0.0578c0.0611-0.0245 0.13415-0.0215 0.16228 7e-3 0.0281 0.0281-0.0219 0.0481-0.11112 0.0445-0.0986-4e-3 -0.1187-0.0241-0.0512-0.0512zm1.5399-0.0268c0-0.0466 0.0381-0.0847 0.0847-0.0847s0.0847 0.0381 0.0847 0.0847-0.0381 0.0847-0.0847 0.0847-0.0847-0.0381-0.0847-0.0847zm1.1007-5e-3c0-0.0493 0.0381-0.0661 0.0847-0.0373s0.0847 0.0691 0.0847 0.0897c0 0.0205-0.0381 0.0373-0.0847 0.0373s-0.0847-0.0404-0.0847-0.0897z" fill="#dfdfdf"/><path d="m104.94 158.72c0.0815-0.0213 0.21484-0.0213 0.29634 0s0.0148 0.0387-0.14817 0.0387c-0.16299 0-0.22966-0.0174-0.14817-0.0387zm-2.0691-0.0841c0.0611-0.0245 0.13415-0.0215 0.16228 7e-3 0.0281 0.0281-0.0219 0.0481-0.11112 0.0445-0.0986-4e-3 -0.1187-0.0241-0.0512-0.0512zm-1.0213-0.25224c0.0582-0.0235 0.15346-0.0235 0.21167 0 0.0582 0.0235 0.0106 0.0427-0.10583 0.0427-0.11642 0-0.16405-0.0192-0.10584-0.0427zm7.1333-0.31587c0-0.0183 0.0591-0.056 0.1314-0.0837 0.0754-0.0289 0.10933-0.0147 0.0797 0.0333-0.0497 0.0805-0.21107 0.11899-0.21107 0.0504zm-8.647-0.3689-0.1162-0.14817 0.14817 0.1162c0.0815 0.0639 0.14817 0.13059 0.14817 0.14817 0 0.0697-0.0695 0.0248-0.18014-0.1162zm9.3755-0.0423c0.0385-0.11056 6e-3 -0.14817-0.12679-0.14817h-0.1784v-0.49576l-0.52917-0.26472c-0.73094-0.36565-1.2481-0.65605-1.5293-0.85875-0.13094-0.0944-0.49-0.263-0.79791-0.37468-0.679-0.24628-0.79854-0.34646-0.59387-0.49767 0.0815-0.0602 0.14817-0.16883 0.14817-0.24138 0-0.25898 0.10579-0.39976 0.3004-0.39976 0.25201 0 0.33253-0.13389 0.30477-0.50679-0.0374-0.5024-0.0904-0.5939-0.34375-0.5939-0.12935 0-0.30303-0.075-0.38596-0.16661-0.11201-0.12377-0.18924-0.14603-0.30034-0.0866-0.21141 0.11314-1.2471 0.18702-1.3051 0.0931-0.0265-0.0429-0.23809-0.10417-0.47011-0.13608l-0.42187-0.058-0.28654 0.17709c-0.1576 0.0974-0.35273 0.17709-0.43361 0.17709h-0.14707l0.0375 0.31751c0.0206 0.17463 0.0657 0.38126 0.10013 0.45918 0.0908 0.20548-0.23314 0.35013-0.80141 0.35785-0.29529 4e-3 -0.54937-0.0435-0.67845-0.12681-0.30795-0.19879-0.54479-0.23728-0.92891-0.15098l-0.34595 0.0777-0.2768-0.13135c-0.63508-0.30136-0.93192-0.76479-1.2106-1.89l-0.049-0.19785 0.51928 0.0446c0.52781 0.0453 0.62502-6e-3 0.38639-0.2041-0.07309-0.0607-0.11617-0.17421-0.09574-0.25235 0.02043-0.0781 0.0015-0.20567-0.04196-0.28342-0.05023-0.0898-0.04404-0.31032 0.01694-0.60408l0.09606-0.4627 0.46478-0.31814c0.25562-0.17497 0.56732-0.37019 0.69264-0.43381 0.12532-0.0636 0.31318-0.16902 0.41747-0.2342 0.20571-0.12859 0.31753-0.12368 0.31992 0.014 8.4e-4 0.0481 0.16963 0.24584 0.37509 0.43937l0.37357 0.35187-0.11698 0.35443-0.11697 0.35444 0.2724 0.24338c0.50985 0.45556 1.1356 0.22631 1.2262-0.44922 0.0551-0.41114 0.19366-0.54228 0.6551-0.62024 0.4026-0.068 0.52987-0.20988 0.45521-0.50738l-0.0572-0.22772-0.30633 0.0494c-0.16848 0.0272-0.46213 0.0731-0.65256 0.10211l-0.34624 0.0527-0.18956-0.24098c-0.13952-0.17737-0.1763-0.30722-0.13937-0.4919 0.0802-0.40074 0.27916-0.64077 0.53128-0.64077 0.22677 0 0.75357-0.30307 0.81875-0.47104 0.0192-0.0495 0.0153-0.19266-9e-3 -0.3181l-0.0436-0.22807-0.32709-0.0523c-0.44811-0.0717-0.54457-0.20666-0.37794-0.5289 0.0728-0.14073 0.13233-0.32879 0.13233-0.4179 0-0.19196 0.56396-0.6084 0.82392-0.6084 0.0989 0 0.25619 0.0971 0.34955 0.21579 0.0934 0.11869 0.30254 0.30592 0.46486 0.41607 0.93341 0.63343 1.8498 0.74361 2.3142 0.27825l0.14794-0.14824-0.14521-0.24583c-0.0799-0.13521-0.14522-0.28071-0.14522-0.32335 0-0.19728 0.4938-0.60598 0.84668-0.70077 0.20956-0.0563 0.48925-0.15827 0.62154-0.22663l0.24054-0.12428 0.14714 0.13316c0.0809 0.0732 0.20993 0.13315 0.28669 0.13315 0.0768 0 0.20449 0.0991 0.28386 0.22026l0.14432 0.22025 0.56971-0.0924 0.0787 0.20698c0.0989 0.26016 0.16587 0.25917 0.47189-7e-3 0.28029-0.24378 0.68166-0.25535 0.82659-0.0238l0.0896 0.14322-0.14461 0.15979c-0.2168 0.23957-0.17546 0.41547 0.12203 0.51918 0.14665 0.0511 0.29906 0.093 0.33868 0.093 0.13529 0 0.0723-0.34512-0.10728-0.58806-0.0986-0.13338-0.15421-0.28313-0.12354-0.33275 0.0757-0.12246-0.16779-0.58618-0.48127-0.91661l-0.25715-0.27106 0.051-0.54563 0.051-0.54562-0.16533-0.0432c-0.22067-0.0577-0.21175-0.22842 0.0119-0.22842 0.0995 0 0.19475-0.0669 0.21711-0.15237 0.0219-0.0838 0.11447-0.19897 0.20569-0.25594 0.1907-0.11909 0.37121-0.0481 0.62857 0.24714l0.16839 0.19318-0.27511-0.19106c-0.18287-0.12701-0.33489-0.1721-0.45339-0.13449l-0.17827 0.0566 0.0515 0.2576c0.0283 0.14168 0.012 0.30527-0.0364 0.36352-0.0483 0.0583-0.11048 0.2965-0.13807 0.52943l-0.0502 0.42352 0.2307 0.19929c0.27342 0.23621 0.55206 0.7493 0.55471 1.0214 1e-3 0.10663 0.0764 0.28912 0.16745 0.40554 0.19823 0.25342 0.2135 0.45063 0.0457 0.58991l-0.12367 0.10263-0.33566-0.14809c-0.37901-0.16722-0.49431-0.42105-0.29254-0.64401 0.0737-0.0815 0.11158-0.20671 0.0841-0.27829-0.0747-0.19462-0.35596-0.15726-0.6136 0.0815-0.25569 0.23697-0.47304 0.26888-0.64693 0.095-0.0642-0.0642-0.2383-0.14339-0.38694-0.17604-0.14865-0.0326-0.31795-0.12657-0.37621-0.20873-0.0583-0.0821-0.24543-0.21522-0.41591-0.2957l-0.30997-0.14634-0.24038 0.12176c-0.1322 0.067-0.38294 0.14757-0.55719 0.17912l-0.31683 0.0573-0.0522 0.20797c-0.0287 0.11438-0.10522 0.20796-0.17002 0.20796-0.153 0-0.14652 0.25127 0.0119 0.46069 0.21333 0.28204 0.14552 0.41882-0.30705 0.6194l-0.43113 0.19108-0.47894-0.0797c-0.42604-0.0709-0.67219-0.17179-1.426-0.58469-0.11331-0.0621-0.24798-0.20495-0.29927-0.31751l-0.0932-0.20464h-0.26799c-0.296 0-0.49624 0.18434-0.75374 0.69387-0.20835 0.41227-0.13527 0.59632 0.22445 0.56532 0.3934-0.0339 0.48579 0.0558 0.48579 0.47145v0.36596l-0.27517 0.20894c-0.15135 0.11492-0.41759 0.23538-0.59165 0.2677-0.17889 0.0332-0.35373 0.12837-0.40217 0.21888-0.13884 0.25942-0.0995 0.64053 0.0832 0.80584l0.16887 0.15282 0.54585-0.14776c0.30023-0.0813 0.58472-0.12374 0.63221-0.0944 0.0475 0.0293 0.11236 0.19202 0.14415 0.36148l0.0578 0.30812-0.1909 0.15459c-0.105 0.085-0.29827 0.15459-0.42949 0.15459-0.30857 0-0.48422 0.18201-0.55414 0.57423-0.0725 0.40671-0.31337 0.66559-0.68392 0.73511l-0.29571 0.0555-0.28866-0.22017c-0.15876-0.1211-0.32937-0.29623-0.37912-0.38919l-0.0905-0.16901 0.13281-0.26622 0.1328-0.26621-0.23179-0.24194c-0.12748-0.13306-0.34139-0.29661-0.47535-0.36344l-0.24357-0.12151-0.26257 0.13578c-0.14441 0.0747-0.4807 0.28468-0.74732 0.46667l-0.48475 0.33088-0.08162 0.38271c-0.07857 0.36841-0.03096 0.67666 0.1653 1.0702 0.04032 0.0809 0.07332 0.22818 0.07332 0.32738v0.18036l-0.1905-0.0561c-0.10478-0.0308-0.31433-0.0645-0.46567-0.0748-0.31479-0.0215-0.33683 0.0537-0.14817 0.50521 0.06985 0.16718 0.127 0.37198 0.127 0.45511 0 0.0831 0.19308 0.32474 0.42906 0.53691l0.42906 0.38576 1.3042-0.1006 0.11457 0.13805c0.14174 0.17078 0.34784 0.18029 0.34784 0.016 0-0.22318 0.16721-0.2293 0.26723-0.01l0.0986 0.21644 0.26158-1e-3c0.14387-7.1e-4 0.31366-0.0343 0.3773-0.0746l0.11573-0.0733-0.10228-0.30989c-0.0563-0.17044-0.0829-0.36039-0.0592-0.42212 0.0237-0.0617 0.27746-0.22747 0.56393-0.3683l0.52087-0.25607 0.43863 0.11678c0.53754 0.14312 1.3294 0.15297 1.6208 0.0202l0.2165-0.0986 0.20676 0.19425c0.1303 0.1224 0.26975 0.17777 0.37706 0.14971 0.23593-0.0617 0.31541 0.0731 0.36958 0.62669 0.0493 0.50422-0.0229 0.66599-0.29733 0.66599-0.0853 0-0.17636 0.0667-0.20241 0.14817-0.026 0.0815-0.0865 0.23026-0.13433 0.33059-0.12222 0.25636-0.0431 0.33825 0.47156 0.48785 0.24792 0.0721 0.5425 0.20144 0.65461 0.28748 0.11212 0.086 0.261 0.18274 0.33085 0.21488 0.0699 0.0321 0.27941 0.15174 0.46568 0.26577 0.38035 0.23286 0.85559 0.46995 1.3459 0.67143l0.32986 0.13556-0.13936 0.15399c-0.0767 0.0847-0.13936 0.17957-0.13936 0.21083 0 0.10611 0.36698 0.0575 0.50437-0.0669l0.13669-0.1237v0.16604c0 0.0913-0.0543 0.16604-0.12069 0.16604-0.0664 0-0.17262 0.0667-0.23607 0.14817l-0.11538 0.14817zm-10.762-0.82552c-0.1599-0.16689-0.20162-0.25497-0.12168-0.25682 0.08008-2e-3 0.05245-0.0605-0.08082-0.17145-0.23389-0.19478-0.3404-0.1541-0.17383 0.0664 0.06241 0.0826-0.03693-2e-3 -0.22077-0.18846-0.18384-0.18627-0.33561-0.3994-0.33728-0.47363-2e-3 -0.0907 0.08455-0.0421 0.264 0.14817 0.26762 0.28376 0.4587 0.36337 0.4587 0.19112 0-0.11386-0.90732-1.0087-1.0228-1.0087-0.04845 0-0.03859 0.0804 0.02335 0.1905 0.05897 0.10478 0.11232 0.25844 0.11856 0.34146l0.01134 0.15095-0.15791-0.14291c-0.18767-0.16984-0.2138-0.26844-0.03091-0.11666 0.17367 0.14414 0.15945 0.0647-0.05283-0.29511-0.09891-0.16764-0.16214-0.32248-0.14052-0.34411 0.05646-0.0565 0.75036 0.44557 0.98265 0.71094 0.10814 0.12354 0.29277 0.37252 0.41028 0.55329l0.21366 0.32866-0.11172 0.0691-0.11172 0.0691 0.20304 0.21613c0.11167 0.11887 0.18448 0.21613 0.16179 0.21613-0.02269 0-0.15076-0.1143-0.2846-0.25401zm11.755 0.12736c0-0.18856 0.26499-0.39349 0.42795-0.33096l0.14199 0.0545-0.2732 0.20156c-0.3234 0.2386-0.29674 0.23187-0.29674 0.0749zm0.31045-0.16969c0.0588-0.0709 0.068-0.127 0.0207-0.127-0.0466 0-0.1321 0.0572-0.19007 0.127-0.0588 0.0708-0.068 0.127-0.0207 0.127 0.0466 0 0.1321-0.0572 0.19008-0.127zm0.53954-0.44121c0.0807-0.11919-0.0301-0.15019-0.16309-0.0456-0.0444 0.0349 0.046-0.0508 0.20086-0.19051 0.15489-0.1397 0.38363-0.36883 0.50833-0.50919 0.12469-0.14035 0.19814-0.21846 0.16321-0.17357-0.10003 0.12857-0.0742 0.23278 0.0423 0.17046 0.0582-0.0311-3e-3 0.0347-0.13565 0.14634-0.13282 0.11163-0.34238 0.31732-0.46568 0.4571s-0.19094 0.20503-0.15031 0.145zm0.93885-1.2908c0.18442-0.20379 0.22669-0.21737 0.16343-0.0525-0.0254 0.0662-0.10782 0.14409-0.1831 0.17298l-0.13687 0.0525zm-15.387-0.0815c-0.03683-0.14083-0.02581-0.17389 0.03702-0.11106 0.0492 0.0492 0.0728 0.13944 0.05244 0.20052-0.02114 0.0634-0.05952 0.025-0.08946-0.0895zm15.715 0.0214c0.0389-0.058 0.0426-0.15108 8e-3 -0.20688-0.0383-0.0619-0.0269-0.0793 0.0293-0.0446 0.0506 0.0313 0.15171-0.0285 0.22475-0.13276 0.073-0.10428 0.13177-0.15254 0.13052-0.10725-1e-3 0.0453-0.10603 0.19813-0.23284 0.33965-0.12681 0.14151-0.1987 0.20986-0.15977 0.15187zm-9.1034-0.49216c-0.12494-0.1075-0.27087-0.21003-0.32431-0.22784-0.13567-0.0452 0.0735-0.49353 0.23023-0.49353 0.17315 0 0.5329 0.39051 0.5329 0.57846 0 0.29535-0.18982 0.35716-0.43882 0.14291zm0.2542-0.22588c-0.0355-0.23867-0.28353-0.39988-0.41419-0.26921-0.0708 0.0708-0.0496 0.14132 0.0823 0.27326 0.2285 0.2285 0.36621 0.22681 0.33186-4e-3zm9.158-0.0702c0.21708-0.30486 0.34006-0.38977 0.34006-0.2348 0 0.15646-0.17765 0.36666-0.36517 0.43208l-0.1535 0.0536zm-16.754-0.36564-0.11209-0.18665 0.15259 0.14615c0.08393 0.0804 0.13437 0.16438 0.11209 0.18666-0.02228 0.0223-0.09094-0.0435-0.15259-0.14616zm17.182-0.24255c-5e-3 -0.23842 0.48634-1.2038 0.52354-1.0296 0.045 0.21084-0.0216 0.45832-0.10889 0.40438-0.0785-0.0485-0.37077 0.45951-0.30319 0.52709 0.0231 0.0231 0.10056-0.0662 0.17219-0.19837 0.0716-0.13218 0.13176-0.19483 0.13363-0.13921 2e-3 0.0556-0.0907 0.20801-0.20561 0.33867l-0.20899 0.23756zm-17.651-0.72363-0.05781-0.15182 0.10521 0.10442c0.05786 0.0574 0.08388 0.12576 0.05781 0.15183-0.02607 0.0261-0.07341-0.0209-0.10521-0.10443zm7.9798-0.63547c-0.22388-0.17226-0.22936-0.44292-0.01-0.47418 0.28708-0.0409 0.54801 0.13548 0.51751 0.34972-0.0309 0.21728-0.3012 0.28351-0.5079 0.12446zm0.43927-0.14975c0-0.0939-0.406-0.21652-0.4781-0.14441-0.0258 0.0258-0.0218 0.0875 9e-3 0.13717 0.0701 0.11337 0.46916 0.11953 0.46916 7e-3zm-8.7075-2e-3c0-0.11642 0.01922-0.16404 0.04271-0.10584s0.02349 0.15347 0 0.21167-0.04271 0.0106-0.04271-0.10583zm18.736-0.19372c-0.11197-0.12915 0.0459-0.83616 0.19801-0.88687l0.10397-0.0346-0.0884 0.23259c-0.0486 0.12792-0.0932 0.3598-0.0991 0.51529-6e-3 0.15548-0.014 0.28124-0.0181 0.27947-4e-3 -2e-3 -0.0475-0.0494-0.0964-0.10583zm-17.429-0.11026c-0.06426-0.16746 0.0053-0.2887 0.16555-0.2887 0.07369 0 0.12201 0.0838 0.12201 0.21167 0 0.23677-0.20517 0.29173-0.28756 0.077zm-1.5222-0.38395c-0.07058-0.35292-0.0022-0.42132 0.07408-0.0741 0.03215 0.14636 0.0408 0.28376 0.01923 0.30533-0.02157 0.0216-0.06356-0.0825-0.09331-0.23125zm18.966-0.85726c-0.10532-0.39301-0.0575-1.0553 0.0846-1.1733l0.13802-0.11454-0.0501 0.25234c-0.0507 0.25525-0.0809 0.71745-0.0651 0.99819 5e-3 0.0842 0.0467 0.12962 0.0932 0.10084 0.0466-0.0288 0.0847-0.012 0.0847 0.0373 0 0.1714-0.23456 0.0885-0.2853-0.10084zm0.12865-1.6745c-7e-3 -0.11769-0.0686-0.29384-0.13697-0.39143-0.0907-0.12955-0.10991-0.29876-0.071-0.62689l0.0532-0.44944 0.0743 0.20074c0.0408 0.11041 0.0512 0.30559 0.0231 0.43374s-8e-3 0.31332 0.0444 0.41149c0.0525 0.0982 0.0798 0.28138 0.0607 0.40714l-0.0349 0.22865zm-13.265-0.33846c-0.0295-0.0477-0.0469-0.20966-0.0387-0.35984 0.0265-0.48569 0.0275-0.48464-0.48912-0.48602-0.26776-7.1e-4 -0.52992-0.0293-0.58257-0.0635-0.0526-0.0342-0.12366-0.4182-0.15778-0.8533l-0.06205-0.79109-0.24439-0.21775c-0.13441-0.11977-0.24439-0.27918-0.24439-0.35426 0-0.0751-0.06258-0.22584-0.13906-0.33504l-0.13906-0.19854-0.42642 0.0505c-0.25782 0.0305-0.47025 0.0141-0.53728-0.0415l-0.11086-0.092-0.04944 0.15771c-0.09588 0.3058-0.18405 0.41252-0.40627 0.4917-0.3744 0.13342-0.4303-0.0341-0.17861-0.53518 0.12156-0.24203 0.20837-0.47803 0.1929-0.52444-0.01547-0.0464-0.28778 0.16402-0.60513 0.46763-0.62227 0.59531-0.67673 0.77413-0.29196 0.95855 0.26745 0.12818 0.5745 0.49331 0.5745 0.68315 0 0.0733-0.139 0.27553-0.3089 0.44952-0.19885 0.20364-0.32716 0.42866-0.36014 0.63162-0.06231 0.38337-0.1918 0.44204-0.43618 0.19766l-0.18446-0.18446 0.05048-0.30767c0.02776-0.16923 0.07473-0.41246 0.10437-0.54052 0.09-0.38884-0.10158-0.26236-0.25651 0.16934-0.25666 0.71521-0.2936 0.7811-0.41234 0.73553-0.1242-0.0477-0.16176-0.29102-0.04491-0.29102 0.03881 0 0.07056-0.0571 0.07056-0.12701 0-0.0699-0.03716-0.127-0.08257-0.127-0.05365 0-0.05365-0.0761 0-0.21718 0.04541-0.11945 0.08699-0.35758 0.09239-0.52918 0.0054-0.17159 0.02734-0.24485 0.04874-0.16278 0.02141 0.0821 0.07402 0.12751 0.11692 0.10099 0.04412-0.0273 0.04133 0.0482-0.0064 0.17381-0.04643 0.12212-0.08227 0.38147-0.07966 0.57635l0.0048 0.35433 0.16716-0.52758c0.10383-0.3277 0.23308-0.56286 0.34117-0.6207 0.0957-0.0512 0.1911-0.076 0.21199-0.0551s-0.01593 0.30015-0.08183 0.62058c-0.12737 0.61937-0.07224 0.96386 0.15425 0.96386 0.08558 0 0.1291-0.0816 0.1291-0.24209 0-0.16287 0.11367-0.37122 0.3474-0.63674l0.3474-0.39467-0.2247-0.2946c-0.12359-0.16203-0.27904-0.2946-0.34544-0.2946-0.06641 0-0.18208-0.0936-0.25705-0.20803l-0.13631-0.20803 0.1134-0.1619c0.06237-0.089 0.35924-0.38596 0.65971-0.65981 0.30047-0.27386 0.67243-0.63128 0.82658-0.79427l0.28026-0.29633 0.07749 0.12244c0.099 0.15642-0.01007 0.36258-0.28826 0.54486-0.11831 0.0775-0.21511 0.18001-0.21511 0.22775 0 0.0477-0.07594 0.24398-0.16875 0.43609-0.19284 0.39913-0.17735 0.44602 0.12248 0.37077 0.1548-0.0389 0.21561-0.11044 0.21561-0.2538 0-0.25363 0.18551-0.42439 0.31757-0.29233 0.05137 0.0514 0.31527 0.0981 0.58643 0.10382l0.49302 0.0104 0.16934 0.35677c0.09314 0.19622 0.20195 0.35815 0.24182 0.35984 0.03987 2e-3 0.14801-0.093 0.24031-0.2103 0.35864-0.45593 0.91489-0.56264 0.91489-0.17552 0 0.27031-0.15334 0.39078-0.3852 0.30262-0.33351-0.1268-0.40959 0.079-0.38576 1.0432 0.0121 0.48971 0.063 0.91119 0.11813 0.97758 0.069 0.0831 0.21303 0.10295 0.50001 0.069l0.40315-0.0477 0.13433 0.13433c0.0993 0.0993 0.11993 0.21959 0.0791 0.46147l-0.0553 0.32713h0.20659c0.11363 0 0.33604-0.0872 0.49425-0.19385l0.28766-0.19386 0.018-0.41891c0.01-0.23041 0.0582-0.43233 0.10739-0.44872 0.12809-0.0427 0.34037-0.26685 0.34037-0.3594 0-0.0432-0.0476-0.08-0.10583-0.0817-0.10348-3e-3 -0.41695-0.45218-0.68525-0.98184-0.0768-0.15164-0.22573-0.28818-0.34769-0.3188-0.14454-0.0363-0.22836-0.12822-0.2599-0.28509-0.0256-0.12735-0.0833-0.34855-0.12829-0.49156-0.20346-0.64726-0.0549-0.95379 0.53211-1.0981 0.16936-0.0416 0.23284-0.10998 0.23284-0.25068 0-0.19242-0.13958-0.29423-0.4091-0.2984-0.12103-2e-3 -0.43758-0.51449-0.43758-0.70861 0-0.0344 0.0667-0.0419 0.14817-0.0165 0.0815 0.0254 0.20404 0.0111 0.27233-0.0318 0.0786-0.0493 0.16509-0.0439 0.23572 0.0147 0.081 0.0672 0.16303 0.0659 0.29918-5e-3 0.10319-0.0536 0.30192-0.0879 0.44162-0.0763l0.25401 0.0212-0.0187-0.18219c-0.0247-0.24092 0.16425-0.38682 0.45736-0.35311 0.46726 0.0537 0.2851 0.57763-0.20084 0.57763-0.13282 0-0.19549 0.0496-0.19549 0.15458 0 0.26949 0.3478 0.49688 0.84473 0.5523 0.25505 0.0284 0.55986 0.12211 0.67735 0.20817 0.23782 0.17418 0.71276 0.35497 0.93253 0.35497 0.0933 0 0.17794-0.11563 0.2426-0.33144l0.0993-0.33144 0.31627-0.0528c0.23204-0.0388 0.41565-5e-3 0.68938 0.12815l0.3731 0.18099 0.37282-0.18619c0.26802-0.13386 0.45234-0.17127 0.65575-0.13311 0.20147 0.0378 0.32192 0.0141 0.41828-0.0823 0.20265-0.20265 0.17217-0.25479-0.26685-0.45642-0.2212-0.10158-0.50695-0.23963-0.63501-0.30676-0.12806-0.0671-0.33762-0.17101-0.46568-0.23084l-0.23284-0.10877-0.0245-0.64288-0.0245-0.64289 0.14111-0.0541c0.0776-0.0298 0.18978-0.0138 0.24928 0.0356s0.20073 0.0665 0.31386 0.0382c0.1174-0.0295 0.42862 0.0235 0.7251 0.12336 0.65018 0.21903 0.77877 0.21975 0.77877 4e-3 0-0.18709-0.44114-0.50162-0.71968-0.51314-0.0931-4e-3 -0.12147-0.0263-0.063-0.0499 0.0585-0.0236 0.0894-0.0704 0.0686-0.10397-0.0208-0.0336 0.14806-2e-3 0.37516 0.0707 0.2271 0.0725 0.35766 0.14423 0.29013 0.1594l-0.12278 0.0276 0.17044 0.21667c0.19324 0.24567 0.22117 0.44334 0.0646 0.45721-0.23612 0.0209-0.5259-0.031-0.85707-0.15347-0.19219-0.0711-0.57013-0.13779-0.83985-0.14822l-0.49039-0.019 0.0247 0.55494 0.0247 0.55493 0.21167 0.10579c0.43628 0.21804 0.73232 0.3625 1.1642 0.56808 0.24448 0.11638 0.44451 0.24332 0.44451 0.28209 0 0.0388-0.0623 0.15948-0.13853 0.26826l-0.13853 0.19778-0.34831-0.0479c-0.25497-0.035-0.44749-2.2e-4 -0.71836 0.12989l-0.37004 0.17775-0.4122-0.17414c-0.56711-0.2396-1.0068-0.119-1.0068 0.27616 0 0.10502-0.0585 0.23945-0.1299 0.29874l-0.12989 0.1078-0.47409-0.16093c-0.26074-0.0885-0.54939-0.2262-0.64144-0.30596-0.0921-0.0798-0.38349-0.16947-0.64765-0.19936-0.50578-0.0572-0.70436-0.15528-0.79294-0.39153-0.0295-0.0788-0.1512-0.20712-0.27035-0.28519l-0.21665-0.14195-0.12679 0.10522c-0.0715 0.0593-0.23002 0.0846-0.3634 0.0579-0.32128-0.0643-0.43333 0.0246-0.38037 0.30162 0.0332 0.17382 0.094 0.23262 0.24022 0.23262 0.20915 0 0.46269 0.20143 0.46056 0.36589-2e-3 0.17988-0.12093 0.28536-0.43644 0.38819-0.1709 0.0557-0.35562 0.15535-0.41047 0.22145l-0.0997 0.12018 0.15647 0.63599 0.15646 0.63599 0.22272 0.0923c0.13061 0.0541 0.28484 0.23001 0.37292 0.42532 0.0826 0.18319 0.27766 0.46432 0.43345 0.62474 0.33968 0.34975 0.36445 0.60537 0.0716 0.73881l-0.21167 0.0964v0.39663c0 0.44456-0.11229 0.59092-0.61422 0.80065-0.36648 0.15312-0.4577 0.1606-0.53011 0.0434zm-0.52159-3.2493c0.0903-0.23521-0.26657-0.31491-0.44536-0.0995l-0.1 0.12047 0.19545 0.0373c0.10749 0.0205 0.21994 0.0425 0.24989 0.0489 0.0299 6e-3 0.0749-0.0419 0.1-0.10719zm-2.5869-1.3894c0.0508-0.15239-0.12421-0.12037-0.18327 0.0335-0.03164 0.0825-0.01272 0.12117 0.04915 0.10055 0.05533-0.0185 0.11568-0.0788 0.13412-0.13408zm5.2457-1.9349c0.0429-0.13043-0.30846-0.23863-0.41828-0.12881-0.0471 0.0471-0.0588 0.1293-0.0258 0.18259 0.0742 0.11997 0.39992 0.0805 0.44411-0.0538zm7.1353 5.2634c0-0.0699 0.0572-0.127 0.127-0.127s0.127 0.0572 0.127 0.127c0 0.0699-0.0572 0.12701-0.127 0.12701-0.0699 0-0.127-0.0571-0.127-0.12701zm3.8812-0.29633c-0.0288-0.20956-0.0822-0.45394-0.11851-0.54307-0.0465-0.11413-0.0368-0.14395 0.033-0.10084 0.0608 0.0376 0.10315 2e-3 0.10966-0.0919 6e-3 -0.0842 0.0384-7.7e-4 0.0724 0.1855s0.09 0.41488 0.12439 0.50801l0.0626 0.16934-0.0856-0.1206-0.0856-0.12059-0.0299 0.24759-0.0299 0.2476zm-18.525-1.0845c-0.0022-0.0658-0.04672-0.085-0.10955-0.0472l-0.10584 0.0636 0.09826-0.12209c0.05404-0.0671 0.12663-0.27386 0.1613-0.45935 0.0443-0.23701 0.07864-0.29278 0.11553-0.18763l0.05249 0.14964 0.2298-0.46855c0.12639-0.25771 0.19674-0.46856 0.15632-0.46856-0.04041 0-0.12116 0.11512-0.17944 0.25583-0.05828 0.1407-0.14191 0.27803-0.18584 0.30518-0.04393 0.0272-9.8e-5 -0.10701 0.09741-0.29815 0.09751-0.19114 0.21719-0.34752 0.26595-0.34752 0.0492 0 0.06546-0.0731 0.03654-0.16418-0.03582-0.11286 7.54e-4 -0.19247 0.117-0.25469 0.09301-0.0498 0.21918-0.19497 0.28038-0.32266 0.0612-0.12769 0.15648-0.23216 0.21173-0.23216 0.05525 0 0.14999-0.0532 0.21053-0.11829l0.11007-0.1183-0.15257 0.0538c-0.09069 0.032-0.13159 0.0199-0.10084-0.0299 0.05184-0.0839 0.29574-0.11941 0.29574-0.0431 0 0.0223-0.15073 0.23977-0.33495 0.48317-0.32157 0.42487-0.92452 1.565-1.1558 2.1856-0.06075 0.16299-0.11213 0.24647-0.11418 0.18551zm0.84296-1.8789c0-0.0466-0.0381-0.0847-0.08467-0.0847s-0.08467 0.0381-0.08467 0.0847 0.0381 0.0847 0.08467 0.0847 0.08467-0.0381 0.08467-0.0847zm17.364 1.8445c-9e-3 -0.18696-0.81514-1.8295-1.005-2.0467-0.0796-0.0911-0.0971-0.13772-0.0389-0.10368 0.0663 0.0387 0.10584 0.0115 0.10584-0.0729 0-0.0741-0.0857-0.17155-0.19051-0.21657l-0.1905-0.0819 0.16442 0.0213c0.10176 0.0132 0.246 0.18254 0.37848 0.44441 0.11773 0.23272 0.2533 0.45112 0.30126 0.48534 0.056 0.04 0.0497 0.0627-0.0177 0.0635-0.0687 8.5e-4 -0.0255 0.16316 0.12488 0.46985l0.2298 0.46855 0.0525-0.14964c0.0369-0.10515 0.0712-0.0494 0.11553 0.18763 0.0347 0.18549 0.10725 0.3922 0.1613 0.45935l0.0983 0.12209-0.0986-0.0591c-0.0542-0.0325-0.1179-0.0112-0.14148 0.0472-0.0263 0.0653-0.0455 0.0504-0.0496-0.0388zm-0.26069-1.0825c-0.0498-0.0931-0.0716-0.16933-0.0483-0.16933s0.0831 0.0762 0.13296 0.16933c0.0498 0.0931 0.0716 0.16934 0.0483 0.16934s-0.0831-0.0762-0.13296-0.16934zm-1.137-1.5875c0.0421-0.0349 0.10507-0.1016 0.13982-0.14817 0.0361-0.0483 0.0637-0.0211 0.0645 0.0635 7.2e-4 0.0824-0.0614 0.14817-0.13982 0.14817-0.0776 0-0.10663-0.0286-0.0645-0.0635zm-0.21851-0.23377-0.10463-0.12607h0.13237c0.15807 0 0.26142 0.13809 0.15334 0.20489-0.0421 0.026-0.12353-9e-3 -0.18108-0.0788zm-14.901-0.24808c0-0.13669 0.1506-0.25338 0.33138-0.25676 0.06584-1e-3 0.13772-0.0559 0.15972-0.12156 0.02791-0.0832-0.0032-0.10274-0.10294-0.0645-0.08446 0.0324-0.12179 0.0206-0.09122-0.0288 0.02845-0.046 0.10345-0.0837 0.16667-0.0837 0.06322 0 0.19715-0.10477 0.29762-0.23283s0.15855-0.18521 0.12907-0.12701c-0.02949 0.0582-0.02088 0.10584 0.01912 0.10584s0.12402-0.0476 0.1867-0.10584c0.06268-0.0582-0.13217 0.15135-0.43301 0.46568-0.5655 0.59086-0.66311 0.65702-0.66311 0.4495zm0.254-0.14199c0-0.0466-0.0381-0.0611-0.08467-0.0323s-0.08467 0.0904-0.08467 0.137 0.0381 0.0611 0.08467 0.0323 0.08467-0.0904 0.08467-0.137zm14.431-0.0958-0.24868-0.27517 0.27517 0.24868c0.2565 0.2318 0.31409 0.30166 0.24868 0.30166-0.0146 0-0.1384-0.12383-0.27517-0.27517zm-12.653-0.0322c0-0.20775 1.3141-1.3023 1.5618-1.3008 0.12609 7.6e-4 0.3856 0.48313 0.3856 0.71674v0.19555l-0.27517 0.0431c-0.15135 0.0237-0.56093 0.12245-0.91019 0.21948-0.69731 0.19371-0.76201 0.20441-0.76201 0.12598zm1.3547-0.38709c0.16299-0.0503 0.34397-0.10398 0.40217-0.11923 0.14946-0.0391 0.12832-0.21055-0.0554-0.4496l-0.15751-0.20489-0.24349 0.10086c-0.29169 0.12082-0.87709 0.64122-0.87709 0.77971 0 0.10566 0.38693 0.0613 0.93135-0.10685zm10.872-0.0888-0.16129-0.1905 0.1905 0.16129c0.17903 0.15157 0.22905 0.21971 0.16129 0.21971-0.0161 0-0.10179-0.0857-0.1905-0.1905zm-12.674-0.59788c0.03519-0.0554 0.06457-0.12635 0.06528-0.15779 7.13e-4 -0.0314 0.14682-0.15591 0.32469-0.27661 0.17787-0.12071 0.30146-0.18397 0.27464-0.14058-0.02681 0.0434-0.01753 0.0917 0.02064 0.10728 0.03817 0.0156-0.1148 0.14988-0.33993 0.29837-0.22513 0.14848-0.38053 0.22468-0.34533 0.16933zm0.91168-0.5546c0.0362-0.0636 0.0243-0.14082-0.0265-0.17225-0.05963-0.0368-0.0388-0.0903 0.059-0.15136l0.15118-0.0944-0.0119 0.16214c-7e-3 0.0892-0.0627 0.20918-0.12465 0.26666l-0.1127 0.10452zm0.72125-0.43505c0.0699-0.0451 0.16511-0.0821 0.21168-0.0821 0.0466 0 0.0275 0.0369-0.0423 0.0821-0.0699 0.0451-0.1651 0.0821-0.21167 0.0821-0.0466 0-0.0275-0.0369 0.0423-0.0821zm-0.0847-0.12104c0-0.0233 0.0762-0.0831 0.16933-0.13296 0.0931-0.0498 0.16934-0.0716 0.16934-0.0483s-0.0762 0.0831-0.16934 0.13296c-0.0931 0.0498-0.16933 0.0716-0.16933 0.0483zm1.1479-0.33771c0.0903-0.066 0.18222-0.10207 0.20423-0.0801 0.0466 0.0466-0.17173 0.19694-0.28877 0.19884-0.0438 7.2e-4 -6e-3 -0.0527 0.0845-0.11878zm0.3985-0.15863c0.0173-0.0518 0.21183-0.14017 0.43237-0.19643 0.28708-0.0732 0.39208-0.0755 0.36962-8e-3 -0.0173 0.0518-0.21183 0.14017-0.43238 0.19643-0.28708 0.0732-0.39207 0.0755-0.36961 8e-3zm4.9942-0.0351c-0.10478-0.0202-0.19051-0.0721-0.19051-0.11547 0-0.11843 0.20048-0.0948 0.386 0.0455 0.16714 0.12643 0.14286 0.13511-0.19549 0.0699zm0.46567-0.081c0.0582-0.0235 0.15346-0.0235 0.21167 0 0.0582 0.0235 0.0106 0.0427-0.10583 0.0427-0.11642 0-0.16405-0.0192-0.10584-0.0427zm-4.4239-0.11326c0.0288-0.0466 0.0691-0.0847 0.0897-0.0847 0.0205 0 0.0373 0.0381 0.0373 0.0847s-0.0404 0.0847-0.0897 0.0847-0.0661-0.0381-0.0373-0.0847zm3.3444 0c0-0.0466 0.0572-0.0847 0.12701-0.0847 0.0699 0 0.127 0.0381 0.127 0.0847s-0.0572 0.0847-0.127 0.0847c-0.0699 0-0.12701-0.0381-0.12701-0.0847zm-1.8823-0.0614c0.15217-0.0188 0.38078-0.0185 0.508 8.7e-4 0.12723 0.0193 3e-3 0.0347-0.27668 0.0343-0.27941-4.8e-4 -0.3835-0.0163-0.23132-0.0351zm-0.57303-0.0566c0-0.0183 0.0591-0.056 0.1314-0.0837 0.0754-0.0289 0.10933-0.0147 0.0797 0.0333-0.0497 0.0805-0.21107 0.11899-0.21107 0.0504z" fill="#d6d6d6"/><path d="m104.03 158.65c-0.21649-0.0771-0.36679-0.0909-0.41911-0.0386-0.16792 0.16792-0.78174 0.0474-0.71112-0.13956 0.0156-0.0414-0.0994-0.0874-0.25548-0.10239-0.20902-0.02-0.26676 5.3e-4 -0.21895 0.0779 0.0475 0.0769 0.0215 0.087-0.0971 0.0379-0.0891-0.037-0.27636-0.0967-0.41607-0.13273l-0.254-0.0655 0.42334-0.031-0.33564-0.15627c-0.36554-0.17019-0.57146-0.13877-0.3256 0.0497 0.10023 0.0768 0.0305 0.0667-0.20153-0.0293-0.26209-0.10842-0.31753-0.15999-0.21223-0.19743l0.14253-0.0507-0.27041-0.13983c-0.37657-0.19473-0.53249-0.17137-0.27881 0.0418l0.21167 0.17785-0.21167-0.13978c-0.11642-0.0769-0.34438-0.20009-0.50659-0.27379-0.38201-0.17358-0.73924-0.45292-0.58435-0.45695 0.12622-3e-3 -0.33834-0.41917-0.46902-0.41987-0.04304-2.3e-4 -0.0049 0.0871 0.08467 0.19416 0.08961 0.10702 0.05869 0.088-0.06872-0.0423-0.1274-0.13031-0.26562-0.23692-0.30714-0.23692-0.09841 0-0.30204-0.24575-0.24822-0.29957 0.02281-0.0228 0.14455 0.0396 0.27053 0.1387 0.31544 0.24812 0.35764 0.15466 0.10537-0.2333-0.31208-0.47994-0.56071-0.74364-0.97827-1.0376-0.41344-0.29103-0.49593-0.28951-0.34139 6e-3l0.10332 0.19775-0.20696-0.2194c-0.11383-0.12066-0.26238-0.25402-0.33012-0.29633-0.12675-0.0792-0.58719-0.747-0.58719-0.85164 0-0.0323-0.06668-0.1372-0.14817-0.2332l-0.14817-0.17454 0.14817 0.11474c0.20461 0.15846 0.19248 4e-3 -0.03453-0.43854-0.10049-0.19605-0.19821-0.31095-0.21716-0.25532-0.01895 0.0556 0.0092 0.18272 0.06256 0.28242s0.08001 0.19829 0.05922 0.21908c-0.02079 0.0208-0.08441-0.0872-0.14138-0.24009-0.05697-0.15284-0.1637-0.39219-0.23718-0.53189l-0.1336-0.254 0.1947 0.16933 0.1947 0.16934-0.06489-0.21167c-0.14021-0.45736-0.21441-0.60095-0.28726-0.55593-0.08703 0.0538-0.15058-0.0836-0.30092-0.65059-0.05865-0.2212-0.07677-0.40218-0.04026-0.40218s0.08432 0.0857 0.10626 0.19051c0.02193 0.10477 0.03411 0.0381 0.02706-0.14817-0.0084-0.22069-0.04969-0.3313-0.11866-0.31751-0.12493 0.025-0.14123-0.16357-0.02426-0.28054 0.05232-0.0523 0.0395-0.20262-0.03577-0.41911-0.07187-0.20672-0.08707-0.3687-0.03924-0.41797 0.04295-0.0442 0.0717-0.29189 0.06387-0.55034l-0.01423-0.46991-0.12194 1.016 0.03435-0.76201c0.05293-1.1742 0.06152-1.2274 0.19457-1.2054 0.07872 0.013 0.18924-0.16919 0.31708-0.52285 0.21211-0.58676 0.25316-0.65698 0.33578-0.57436 0.02971 0.0297 0.0061 0.22502-0.05238 0.43401-0.12582 0.44939-0.06477 0.77048 0.17044 0.89636 0.22914 0.12263 0.33592 0.0392 0.33592-0.26237 0-0.17503 0.1024-0.36199 0.33867-0.61831 0.18627-0.20208 0.33867-0.4247 0.33867-0.4947 0-0.18469-0.3105-0.55072-0.5745-0.67725-0.38477-0.18442-0.33031-0.36324 0.29196-0.95855 0.31735-0.30361 0.58966-0.51404 0.60513-0.46763 0.01547 0.0464-0.07133 0.28241-0.1929 0.52444-0.25169 0.5011-0.19578 0.6686 0.17861 0.53518 0.22222-0.0792 0.31039-0.1859 0.40627-0.4917l0.04944-0.15771 0.11086 0.092c0.06703 0.0556 0.27946 0.072 0.53728 0.0415l0.42642-0.0505 0.13906 0.19854c0.07649 0.1092 0.13906 0.25997 0.13906 0.33504 0 0.0751 0.10998 0.23449 0.24439 0.35426l0.24439 0.21775 0.06205 0.79109c0.03412 0.4351 0.10514 0.81909 0.15779 0.8533 0.0526 0.0342 0.31481 0.0628 0.58257 0.0635 0.52235 1e-3 0.51348-8e-3 0.48856 0.53064-0.0182 0.39326 0.11731 0.46068 0.55681 0.27704 0.51511-0.21522 0.62683-0.35886 0.62683-0.80591v-0.39663l0.21167-0.0964c0.29285-0.13344 0.26808-0.38906-0.0716-0.73881-0.15579-0.16042-0.35085-0.44155-0.43345-0.62474-0.0881-0.19531-0.24231-0.37122-0.37292-0.42532l-0.22272-0.0923-0.15646-0.63599-0.15647-0.63599 0.0997-0.12018c0.0549-0.0661 0.23957-0.16575 0.41047-0.22145 0.31551-0.10283 0.4341-0.20831 0.43644-0.38819 2e-3 -0.16446-0.25141-0.36589-0.46056-0.36589-0.14627 0-0.20699-0.0588-0.24022-0.23262-0.053-0.27703 0.0591-0.36588 0.38037-0.30162 0.13338 0.0267 0.29194 1e-3 0.3634-0.0579l0.12679-0.10522 0.21665 0.14195c0.11915 0.0781 0.24081 0.20641 0.27035 0.28519 0.0886 0.23625 0.28716 0.33431 0.79294 0.39153 0.26416 0.0299 0.5556 0.1196 0.64765 0.19936 0.0921 0.0798 0.3807 0.21744 0.64144 0.30596l0.47409 0.16093 0.12989-0.1078c0.0714-0.0593 0.1299-0.19372 0.1299-0.29874 0-0.39516 0.43964-0.51576 1.0068-0.27616l0.4122 0.17414 0.37004-0.17775c0.27087-0.13011 0.46339-0.16492 0.71836-0.12989l0.34831 0.0479 0.13853-0.19778c0.0762-0.10878 0.13853-0.2295 0.13853-0.26826 0-0.0388-0.20003-0.16571-0.44451-0.28209-0.43187-0.20558-0.72791-0.35004-1.1642-0.56808l-0.21167-0.10579-0.0247-0.55493-0.0247-0.55494 0.49039 0.019c0.26972 0.0104 0.64766 0.0771 0.83985 0.14822 0.33117 0.12249 0.62095 0.17438 0.85707 0.15347 0.15791-0.014 0.12813-0.2122-0.0696-0.46363l-0.17549-0.22309 0.15432 1e-3c0.0849 7.7e-4 0.29553 0.0865 0.46814 0.19051 1.2156 0.73252 1.4129 0.86132 1.3759 0.89828-0.0229 0.0228-0.0866-4e-3 -0.14174-0.0586-0.0551-0.0551-0.1402-0.1-0.18909-0.0998-0.10297 4.9e-4 0.38278 0.4153 0.49166 0.41987 0.0399 2e-3 0.0494-0.0573 0.0211-0.13115-0.0535-0.13935 0.57386 0.31902 0.68461 0.50022 0.0335 0.0548-0.0642-5e-3 -0.21699-0.13318-0.29399-0.24632-0.48876-0.30909-0.37495-0.12085 0.14348 0.23733 0.80272 0.76259 0.85736 0.68311 0.0315-0.0459 0.18447 0.0607 0.34202 0.23831 0.33932 0.38252 0.19694 0.42744-0.21326 0.0673-0.15911-0.1397-0.31654-0.25279-0.34985-0.25131-0.10947 5e-3 -0.32399 0.20614-0.38065 0.35715-0.0306 0.0815-0.13299 0.14817-0.22759 0.14817-0.21964 0-0.22465 0.17142-7e-3 0.22842l0.16533 0.0432-0.051 0.54562-0.051 0.54563 0.25715 0.27106c0.31348 0.33043 0.55695 0.79415 0.48127 0.91661-0.0307 0.0496 0.0249 0.19937 0.12354 0.33275 0.17961 0.24294 0.24257 0.58806 0.10728 0.58806-0.0396 0-0.19203-0.0418-0.33868-0.093-0.29749-0.10371-0.33883-0.27961-0.12203-0.51918l0.14461-0.15979-0.0896-0.14322c-0.14493-0.23152-0.5463-0.21995-0.82659 0.0238-0.30602 0.26616-0.37297 0.26715-0.47189 7e-3l-0.0787-0.20698-0.28485 0.0462-0.28486 0.0462-0.14432-0.22025c-0.0794-0.12114-0.20711-0.22026-0.28386-0.22026-0.0768 0-0.20577-0.0599-0.28669-0.13315l-0.14714-0.13316-0.24054 0.12428c-0.13229 0.0684-0.41198 0.17034-0.62154 0.22663-0.35288 0.0948-0.84668 0.50349-0.84668 0.70077 0 0.0426 0.0653 0.18814 0.14522 0.32335l0.14521 0.24583-0.14794 0.14824c-0.46443 0.46536-1.3808 0.35518-2.3142-0.27825-0.16232-0.11015-0.3715-0.29738-0.46486-0.41607-0.0934-0.11868-0.25066-0.21579-0.34955-0.21579-0.25996 0-0.82392 0.41644-0.82392 0.6084 0 0.0891-0.0596 0.27717-0.13233 0.4179-0.16663 0.32224-0.0702 0.45724 0.37794 0.5289l0.32709 0.0523 0.0436 0.22807c0.024 0.12544 0.0279 0.26858 9e-3 0.3181-0.0652 0.16797-0.59198 0.47104-0.81875 0.47104-0.25212 0-0.45113 0.24003-0.53128 0.64077-0.0369 0.18468-1.5e-4 0.31453 0.13937 0.4919l0.18956 0.24098 0.34624-0.0527c0.19043-0.029 0.48408-0.0749 0.65256-0.10211l0.30633-0.0494 0.0572 0.22772c0.0747 0.2975-0.0526 0.43936-0.45521 0.50738-0.46144 0.078-0.59996 0.2091-0.6551 0.62024-0.0906 0.67553-0.7164 0.90478-1.2262 0.44922l-0.2724-0.24338 0.11697-0.35444 0.11698-0.35443-0.37357-0.35187c-0.20546-0.19353-0.37425-0.39125-0.37509-0.43937-2e-3 -0.12356-0.14208-0.12387-0.34019-7.5e-4 -0.0931 0.0579-0.27188 0.15729-0.3972 0.22092-0.12533 0.0636-0.43702 0.25884-0.69264 0.43381l-0.46478 0.31814-0.09606 0.4627c-0.06098 0.29376-0.06717 0.51433-0.01694 0.60408 0.04351 0.0778 0.0624 0.20529 0.04196 0.28342-0.02043 0.0781 0.02265 0.19169 0.09574 0.25235 0.23862 0.19804 0.14142 0.24938-0.38639 0.2041l-0.51928-0.0446 0.049 0.19785c0.2787 1.1252 0.57555 1.5886 1.2106 1.89l0.2768 0.13135 0.34595-0.0777c0.38412-0.0863 0.62096-0.0478 0.92891 0.15098 0.12908 0.0833 0.38316 0.13082 0.67845 0.12681 0.56827-8e-3 0.89221-0.15237 0.80141-0.35785-0.0344-0.0779-0.0795-0.28455-0.10013-0.45918l-0.0375-0.31751h0.14707c0.0809 0 0.27601-0.0797 0.43361-0.17709l0.28654-0.17709 0.42187 0.058c0.23202 0.0319 0.44357 0.0932 0.47011 0.13608 0.058 0.0939 1.0937 0.02 1.3051-0.0931 0.1111-0.0595 0.18833-0.0372 0.30034 0.0866 0.0829 0.0916 0.25661 0.16661 0.38596 0.16661 0.2534 0 0.30636 0.0915 0.34375 0.5939 0.0278 0.3729-0.0528 0.50679-0.30477 0.50679-0.19461 0-0.3004 0.14078-0.3004 0.39976 0 0.0726-0.0667 0.18117-0.14817 0.24138-0.20467 0.15121-0.0851 0.25139 0.59387 0.49767 0.30791 0.11168 0.66697 0.28029 0.79791 0.37468 0.28118 0.2027 0.79833 0.4931 1.5293 0.85875l0.52917 0.26472v0.49576h0.16934c0.24819 0 0.20655 0.14574-0.0847 0.29634-0.31843 0.16466-0.33769 0.0931-0.0212-0.0786 0.33274-0.18051 0.0243-0.17222-0.35696 0.01-0.30126 0.14366-0.38945 0.27479-0.19338 0.28754 0.0582 4e-3 -0.16087 0.0941-0.48684 0.20067-0.32597 0.10658-0.66888 0.22089-0.76201 0.25403l-0.16934 0.0602 0.16934-0.14531 0.16933-0.1453-0.15509 0.0537c-0.0853 0.0296-0.18889 0.0537-0.23018 0.0537-0.0413 0-0.0553 0.0517-0.031 0.11483 0.0581 0.1515-0.86229 0.27261-1.0278 0.13523-0.0794-0.0659-0.15995-0.0665-0.28013-2e-3 -0.22991 0.12305-0.79271 0.19044-0.72896 0.0873 0.0297-0.0481-0.14369-0.0812-0.42551-0.0812-0.29556 0-0.45586 0.0321-0.42334 0.0847 0.0713 0.11543-0.10374 0.1006-0.50687-0.043zm-0.65908-0.0929c-0.0281-0.0281-0.10117-0.0311-0.16229-7e-3 -0.0675 0.027-0.0475 0.0471 0.0512 0.0512 0.0893 4e-3 0.13926-0.0163 0.11113-0.0445zm-3.2791-1.2053c0-0.0694-0.37255-0.27037-0.49082-0.26478-0.08539 4e-3 0.32514 0.33586 0.41554 0.33586 0.0414 0 0.0753-0.032 0.0753-0.0711zm4.0641-2.9912c0-0.18795-0.35975-0.57846-0.5329-0.57846-0.15677 0-0.3659 0.4483-0.23023 0.49353 0.0534 0.0178 0.19937 0.12034 0.32431 0.22784 0.249 0.21425 0.43882 0.15244 0.43882-0.14291zm-7.4353-0.3428c-0.06076-0.0607-0.10019-0.0658-0.10019-0.0127 0 0.11301 0.10013 0.21314 0.15664 0.15664 0.02406-0.0241-0.0013-0.0888-0.05645-0.14394zm0.49249-2.31c0-0.12785-0.04831-0.21167-0.12201-0.21167-0.16029 0-0.22981 0.12124-0.16555 0.2887 0.08239 0.2147 0.28756 0.15974 0.28756-0.077zm-1.5004-0.13036c-0.02484-0.095-0.06408-0.15377-0.0872-0.13065-0.04581 0.0458 0.0351 0.30335 0.0953 0.30335 0.02039 0 0.01674-0.0777-0.0081-0.1727zm13.862-11.128c0-0.0509-0.47681-0.29946-0.56731-0.2957-0.1171 5e-3 0.32606 0.33586 0.44969 0.33586 0.0647 0 0.11762-0.0181 0.11762-0.0402zm0.50801 16.896c0-0.0426 0.18625-0.19201 0.4139-0.33208s0.49995-0.34337 0.60513-0.45177c0.10517-0.1084 0.16432-0.14947 0.13144-0.0913-0.0329 0.0582-0.0239 0.10584 0.02 0.10584s0.0997-0.0762 0.12407-0.16934c0.0244-0.0931 0.0868-0.16933 0.13883-0.16933 0.0578 0 0.0407 0.0822-0.0442 0.21167-0.0763 0.11642-0.18297 0.21167-0.23708 0.21167-0.0541 0-0.22113 0.1121-0.37114 0.24911-0.49639 0.45338-0.78101 0.61209-0.78101 0.43549zm-12.531-1.8565c-0.20955-0.21145-0.3018-0.32004-0.205-0.2413 0.0968 0.0787 0.20573 0.14317 0.24207 0.14317 0.08561 0 0.46757 0.36164 0.46948 0.4445 0.0029 0.12425-0.13061 0.033-0.50655-0.34637zm14.648 0.0675c0-0.0532 0.0762-0.11673 0.16933-0.14108 0.0931-0.0244 0.16934-0.0802 0.16934-0.12407 0-0.0439-0.0476-0.0529-0.10583-0.02-0.0582 0.0329-0.0296-0.0169 0.0635-0.11065 0.0931-0.0937 0.22648-0.2554 0.29634-0.35926 0.27167-0.40396 0.32629-0.46716 0.36783-0.42562 0.0614 0.0614-0.65318 1.1055-0.82074 1.1993-0.094 0.0526-0.13977 0.0465-0.13977-0.0186zm1.4394-2.0748c0-0.10498 0.26968-0.55868 0.30882-0.51954 0.0454 0.0454-0.20167 0.56608-0.26866 0.56608-0.0221 0-0.0402-0.0209-0.0402-0.0465zm0.42334-0.89616c0-0.0528 0.0441-0.24331 0.0981-0.42334 0.10607-0.35403 0.29271-0.4618 0.20677-0.11939-0.12298 0.48999-0.30484 0.81377-0.30484 0.54273zm-10.206-0.50229c-0.0307-0.0497-0.0347-0.1114-9e-3 -0.13717 0.0721-0.0721 0.4781 0.0505 0.4781 0.14441 0 0.11229-0.39909 0.10613-0.46916-7e-3zm10.629-1.2221c0-0.0699 0.0381-0.127 0.0847-0.127s0.0847 0.0571 0.0847 0.127-0.0381 0.127-0.0847 0.127-0.0847-0.0572-0.0847-0.127zm-8e-3 -0.35484c-0.0185-0.36042 0.0275-0.91799 0.079-0.95726 0.0893-0.0682 0.0718-0.96814-0.0201-1.0313-0.0459-0.0315-0.0924-0.32455-0.10336-0.65113l-0.0199-0.59379 0.12278 0.0471c0.0887 0.034 0.10832 0.12416 0.0707 0.32471-0.0299 0.15926-8e-3 0.36012 0.0515 0.47117 0.13572 0.25359 0.1079 1.5054-0.043 1.933-0.0771 0.21857-0.0873 0.3553-0.0306 0.41199 0.0567 0.0567 0.0543 0.10373-7e-3 0.14174-0.0526 0.0325-0.0954-9e-3 -0.0999-0.0963zm-19.127-3.2859c0-0.0699 0.0381-0.127 0.08467-0.127s0.08467 0.0572 0.08467 0.127c0 0.0699-0.0381 0.12701-0.08467 0.12701s-0.08467-0.0571-0.08467-0.12701zm19.136-0.23283 1e-3 -0.19051 0.0821 0.12701c0.10608 0.16415 0.10608 0.254 0 0.254-0.0466 0-0.0841-0.0857-0.0834-0.1905zm-18.882-0.7924c0-0.0936 0.05975-0.24405 0.13277-0.33444l0.13277-0.16435-0.05409 0.254c-0.06724 0.31575-0.21145 0.48269-0.21145 0.24479zm18.638-0.0671c-0.0554-0.13511-0.0869-0.28742-0.0698-0.33845 0.0478-0.14342 0.24386 0.27777 0.20498 0.44038l-0.0344 0.14373zm-13.88-0.78842-0.19545-0.0373 0.1-0.12047c0.10171-0.12255 0.34846-0.16169 0.44031-0.0699 0.0612 0.0612-0.0183 0.29277-0.0949 0.27653-0.0299-6e-3 -0.1424-0.0283-0.24989-0.0489zm-4.3345-0.20066c-3.08e-4 -0.15733 0.36214-0.83963 0.44602-0.83963 0.03579 0-0.0354 0.20003-0.15821 0.44451-0.2606 0.5188-0.2875 0.55573-0.28781 0.39512zm17.674-0.36967c-0.12677-0.25847-0.20226-0.46996-0.16776-0.46996 0.0927 0 0.46642 0.73542 0.42972 0.84552-0.0173 0.0519-0.13519-0.11708-0.26196-0.37556zm-17.166-0.80863c0-0.0466 0.0381-0.0847 0.08467-0.0847s0.08467 0.0381 0.08467 0.0847-0.0381 0.0847-0.08467 0.0847-0.08467-0.0381-0.08467-0.0847zm1.406-0.0353c0.0283-0.0737 0.08865-0.13407 0.13412-0.13407 0.11129 0 0.0416 0.19243-0.08496 0.23462-0.06187 0.0206-0.08079-0.0181-0.04915-0.10055zm15.023-0.38083c-0.0655-0.12244-0.0668-0.17658-4e-3 -0.17658 0.10264 0 0.21443 0.23745 0.14464 0.30724-0.0253 0.0253-0.0885-0.0335-0.14044-0.13066zm-15.871-0.30359c0.07628-0.11642 0.17905-0.21167 0.22838-0.21167 0.04933 0 2.05e-4 0.0952-0.10916 0.21167-0.10937 0.11642-0.21214 0.21167-0.22838 0.21167s0.03288-0.0952 0.10916-0.21167zm15.529-0.21167c0-0.0466 0.0381-0.0847 0.0847-0.0847s0.0847 0.0381 0.0847 0.0847-0.0381 0.0847-0.0847 0.0847-0.0847-0.0381-0.0847-0.0847zm-14.984-0.39062c0.0034-0.13613 0.32395-0.49712 0.38616-0.43491 0.03352 0.0335-0.04007 0.16198-0.16354 0.28545-0.12347 0.12348-0.22365 0.19073-0.22262 0.14946zm2.3688-0.53562c0-0.13849 0.5854-0.65889 0.87709-0.77971l0.24349-0.10086 0.15751 0.20489c0.18375 0.23905 0.20489 0.41046 0.0554 0.4496-0.0582 0.0153-0.23918 0.0689-0.40217 0.11923-0.54442 0.16812-0.93135 0.21251-0.93135 0.10685zm2.9195-0.0923c-0.0329-0.0533-0.0213-0.13545 0.0258-0.18259 0.10982-0.10982 0.46119-2e-3 0.41828 0.12881-0.0442 0.1343-0.36996 0.17375-0.44411 0.0538zm-4.4487-0.32648c0.07942-0.1484 0.61845-0.51917 0.75085-0.51647 0.08519 2e-3 -0.67588 0.67615-0.76303 0.67615-0.0403 0-0.03482-0.0719 0.01218-0.15968zm1.3269-0.97719c0.06006-0.15652 0.31769-0.18299 0.26585-0.0273-0.0194 0.0582-0.09862 0.11813-0.17609 0.13316-0.09823 0.0191-0.12539-0.013-0.08976-0.10584zm0.37165-0.22048c0-0.048 0.0667-0.10691 0.14817-0.13085 0.0815-0.0239 0.40596-0.17771 0.72104-0.34172 0.32411-0.16871 0.65501-0.28372 0.76202-0.26484l0.18913 0.0334-0.42334 0.19101c-0.23284 0.10505-0.61764 0.28311-0.85512 0.39569-0.48392 0.2294-0.5419 0.24195-0.5419 0.11735zm7.6474-0.70229c-0.148-0.0547-0.3004-0.13404-0.33867-0.17639-0.0408-0.0451-5e-3 -0.0539 0.0855-0.0212 0.0853 0.0307 0.2209 0.0558 0.30133 0.0558 0.0804 0 0.22018 0.0559 0.31058 0.12431 0.20469 0.15482 0.0355 0.16303-0.35875 0.0174zm-4.7687-0.31107c0-0.0466 0.0594-0.0847 0.132-0.0847s0.10845 0.0381 0.0797 0.0847c-0.0288 0.0466-0.0882 0.0847-0.132 0.0847s-0.0797-0.0381-0.0797-0.0847zm3.2015-0.0578c0.0611-0.0245 0.13414-0.0215 0.16228 7e-3 0.0281 0.0281-0.0219 0.0481-0.11113 0.0445-0.0986-4e-3 -0.1187-0.0241-0.0512-0.0512z" fill="#cbcbcb"/><path d="m103.74 158.7c-0.11595-0.0323-0.17058-0.0835-0.1214-0.11393 0.0492-0.0304 0.23929-2e-3 0.42249 0.0634l0.33307 0.11866-0.21167-5e-3c-0.11642-3e-3 -0.30654-0.0311-0.42249-0.0634zm2.2788-0.0489c0.19807-0.0914 0.31748-0.10627 0.37677-0.047 0.0593 0.0593 0.0345 0.0872-0.0783 0.088-0.0908 6.3e-4 -0.26035 0.0218-0.37677 0.047-0.15007 0.0325-0.12728 7e-3 0.0783-0.088zm-1.2833-0.0215c0.15217-0.0188 0.38078-0.0185 0.508 8.6e-4 0.12723 0.0193 3e-3 0.0347-0.27668 0.0343-0.27941-4.8e-4 -0.3835-0.0163-0.23132-0.0351zm-2.2257-0.14935-0.1677-0.13095 0.29634 0.0227c0.16299 0.0125 0.28883 0.0608 0.27965 0.10733-0.0276 0.13988-0.22976 0.14036-0.40829 9.6e-4zm0.70544 0.0682c0.0611-0.0245 0.13415-0.0214 0.16229 7e-3 0.0281 0.0281-0.0219 0.0481-0.11113 0.0445-0.0986-4e-3 -0.1187-0.0241-0.0512-0.0512zm4.2118-0.10361c-0.0249-0.0403 0.0383-0.0952 0.14054-0.12191 0.24316-0.0636 0.26636-0.0306 0.0663 0.0943-0.0889 0.0555-0.18195 0.0679-0.20687 0.0276zm-6.0002-0.2988c-0.24698-0.18725-0.039-0.21817 0.3256-0.0484l0.33564 0.15627-0.254 4e-3c-0.13971 2e-3 -0.32296-0.0481-0.40724-0.11202zm7.3924-0.20142c0-0.0899 0.55603-0.35448 0.74372-0.35392 0.0854 2.6e-4 6e-3 0.0865-0.19337 0.20903-0.34692 0.21367-0.55035 0.26723-0.55035 0.14489zm-8.2128-0.18502c-0.11642-0.0911-0.16215-0.16642-0.10163-0.16745 0.12351-2e-3 0.60964 0.23442 0.60964 0.29663 0 0.10087-0.31694 0.0203-0.50801-0.12918zm-0.86979-0.50801c-0.1184-0.0931-0.25025-0.16933-0.293-0.16933-0.04275 0-0.16721-0.0953-0.27658-0.21167-0.27533-0.29308-0.15753-0.2646 0.35021 0.0847 0.23694 0.16298 0.46463 0.29633 0.50596 0.29633 0.0413 0 0.0752 0.0381 0.0752 0.0847 0 0.13056-0.1255 0.10118-0.36178-0.0847zm11.496-0.76201c0.0288-0.0466 0.0691-0.0847 0.0897-0.0847 0.0205 0 0.0373 0.0381 0.0373 0.0847s-0.0404 0.0847-0.0897 0.0847-0.0661-0.0381-0.0373-0.0847zm-13.872-1.2555c-0.15542-0.17173-0.17891-0.2685-0.06519-0.2685 0.04121 0 0.13734 0.0952 0.21362 0.21167 0.1607 0.24526 0.05776 0.28467-0.14843 0.0568zm15.058 0.0702c0.0288-0.0466 0.0691-0.0847 0.0897-0.0847 0.0205 0 0.0373 0.0381 0.0373 0.0847s-0.0404 0.0847-0.0897 0.0847-0.0661-0.0381-0.0373-0.0847zm-15.734-1.1571c-0.03104-0.031-0.05644-0.0958-0.05644-0.14394 0-0.0531 0.03944-0.048 0.10019 0.0127 0.0551 0.0551 0.08051 0.11988 0.05645 0.14394-0.02406 0.0241-0.06915 0.0183-0.10019-0.0127zm-0.27819-0.46345c-0.13766-0.17897-0.31449-0.66546-0.26124-0.71871 0.06311-0.0631 0.41671 0.63307 0.379 0.7462-0.01741 0.0522-0.06497 0.0411-0.11776-0.0275zm-0.48239-1.0716c-0.15984-0.17662-0.22524-0.51364-0.10021-0.51642 0.08213-2e-3 0.32638 0.58209 0.26793 0.64053-0.01599 0.016-0.09147-0.0399-0.16772-0.12411zm-0.28267-0.99452c-0.02757-0.0719-0.03122-0.14957-0.0081-0.17269 0.02312-0.0231 0.06236 0.0357 0.0872 0.13065 0.05276 0.20176-0.0059 0.23292-0.0791 0.042zm-0.10034-0.4338c-0.0075-0.10089-0.05851-0.19843-0.11345-0.21674-0.05997-0.02-0.07578-0.0962-0.03956-0.19055 0.09526-0.24826 0.24199-0.0263 0.20151 0.3048-0.01922 0.15727-0.04105 0.20339-0.0485 0.10249zm-0.18289-0.80505c0-0.0733-0.0208-0.26194-0.04622-0.41911l-0.04622-0.28575 0.12779 0.33753c0.08197 0.21649 0.09854 0.36679 0.04622 0.41911-0.05232 0.0523-0.08158 0.0337-0.08158-0.0518zm19.197 0.0416c-0.0218-0.038 0.0113-0.20249 0.0737-0.36547l0.11335-0.29634-0.0511 0.33867c-0.0565 0.37494-0.0776 0.42494-0.13596 0.32314zm-19.198-1.3219 0.04114-0.52527 0.0272 0.4566c0.01496 0.25113-0.0036 0.4875-0.04114 0.52527-0.03759 0.0378-0.04983-0.1677-0.0272-0.4566zm19.228-0.44765c4e-3 -0.0986 0.0241-0.1187 0.0512-0.0512 0.0245 0.0611 0.0214 0.13415-7e-3 0.16228-0.0281 0.0281-0.0482-0.0219-0.0445-0.11112zm-19.297-0.45869c0.0014-0.0699 0.03299-0.22226 0.07028-0.33868l0.06779-0.21167 0.0025 0.16934c0.0014 0.0931-0.03026 0.24554-0.07028 0.33867-0.04458 0.10375-0.0718 0.12015-0.07028 0.0423zm19.343-0.13028c-0.029-0.0757-0.0489-0.22019-0.0441-0.32116 5e-3 -0.11605 0.0342-0.0748 0.0782 0.11219 0.074 0.31465 0.0539 0.43805-0.0341 0.20897zm-0.13746-0.80107c0-0.0466 0.0381-0.0847 0.0847-0.0847s0.0847 0.0381 0.0847 0.0847-0.0381 0.0847-0.0847 0.0847-0.0847-0.0381-0.0847-0.0847zm-3.1664-5.4685c-0.27462-0.25888-0.59014-0.5302-0.70115-0.60294-0.11102-0.0728-0.18729-0.14683-0.16948-0.16464 0.0399-0.0399 0.39917 0.14361 0.56821 0.29012 0.0684 0.0593 0.30536 0.24536 0.52655 0.4135 0.2212 0.16813 0.40217 0.35775 0.40217 0.42137 0 0.19353-0.10609 0.13299-0.6263-0.35741zm-2.1795-1.4715c-0.10994-0.0916-0.16942-0.16779-0.13218-0.16934 0.0905-4e-3 0.56731 0.24477 0.56731 0.2957 0 0.0988-0.25315 0.0252-0.43513-0.12636zm-3.1368-0.992c0.0611-0.0245 0.13415-0.0214 0.16228 7e-3 0.0281 0.0281-0.0219 0.0481-0.11112 0.0445-0.0986-4e-3 -0.1187-0.0241-0.0512-0.0512z" fill="#b7b7b7"/></g></svg>
